<svg width="32" height="32" viewBox="0 0 32 32" fill="none" xmlns="http://www.w3.org/2000/svg">
<path d="M0 0H8V2H10V4H12V12H16V14H18V12H26V14H28V16H26V30H24V20H22V28H20V20H18V18H12V20H8V30H6V22H4V20H2V18H4V14H6V8H4V10H0V6H2V2H0V0Z" fill="#1A1A1A"/>
<path d="M8 0H32V32H24V30H26V16H28V14H26V12H18V14H16V12H12V4H10V2H8V0Z"/>
<path d="M0 2H2V6H0V2Z"/>
<path d="M4 4H6V6H4V4Z"/>
<path d="M4 8H6V14H4V18H2V20H0V10H4V8Z"/>
<path d="M28 16H30V28H28V16Z" fill="#1A1A1A"/>
<path d="M12 18H18V20H20V28H18V30H20V28H22V20H24V30H22V32H6V30H8V20H12V18Z"/>
<path d="M0 20H2V24H0V20Z" fill="#1A1A1A"/>
<path d="M2 20H4V22H6V30H4V32H0V24H2V20Z"/>
<path d="M2 24H4V28H2V24Z" fill="#1A1A1A"/>
<path d="M18 28H20V30H18V28Z" fill="#1A1A1A"/>
<path d="M4 30H6V32H4V30Z" fill="#1A1A1A"/>
<path d="M22 30H24V32H22V30Z" fill="#1A1A1A"/>
</svg>
