<svg width="32" height="32" viewBox="0 0 32 32" fill="none" xmlns="http://www.w3.org/2000/svg">
<path d="M0 0H12V10H10V12H6V16H12V14H14V2H22V4H18V6H22V12H20V14H16V18H22V16H24V0H32V24H30V22H26V20H6V22H2V24H0V0Z"/>
<path d="M12 0H24V16H22V18H16V14H20V12H22V6H18V4H22V2H14V14H12V16H6V12H10V10H12V0Z" fill="#1A1A1A"/>
<path d="M6 20H26V22H30V24H22V26H26V28H30V30H26V32H4V30H2V28H4V26H8V24H2V22H6V20Z" fill="#1A1A1A"/>
<path d="M0 24H2V28H0V24Z" fill="#1A1A1A"/>
<path d="M2 24H8V26H4V28H2V24Z"/>
<path d="M22 24H30V28H26V26H22V24Z"/>
<path d="M30 24H32V28H30V24Z" fill="#1A1A1A"/>
<path d="M12 26H18V28H20V30H10V28H12V26Z"/>
<path d="M0 28H2V30H4V32H0V28Z"/>
<path d="M30 28H32V32H26V30H30V28Z"/>
</svg>
