<svg width="32" height="32" viewBox="0 0 32 32" fill="none" xmlns="http://www.w3.org/2000/svg">
<path d="M0 0H2V2H0V0Z" fill="#1A1A1A"/>
<path d="M2 0H6V2H8V6H6V8H8V6H10V2H8V0H22V4H24V8H26V4H24V0H32V32H24V30H28V28H30V22H28V20H24V18H26V14H24V12H22V14H20V8H18V6H16V4H14V2H12V8H10V10H8V12H10V14H6V16H4V20H6V22H2V24H0V14H2V10H4V8H2V4H4V2H2V0Z" fill="white"/>
<path d="M6 0H8V2H6V0Z" fill="#1A1A1A"/>
<path d="M22 0H24V4H22V0Z" fill="#1A1A1A"/>
<path d="M0 2H2V4H0V2Z" fill="white"/>
<path d="M2 2H4V4H2V2Z" fill="#1A1A1A"/>
<path d="M8 2H10V6H8V2Z" fill="#1A1A1A"/>
<path d="M12 2H14V4H16V6H18V8H20V14H22V12H24V14H26V18H24V20H28V22H30V28H28V30H24V32H6V30H2V28H0V24H2V22H6V20H4V16H6V14H10V12H8V10H10V8H12V2Z" fill="#1A1A1A"/>
<path d="M0 4H2V8H0V4Z" fill="#1A1A1A"/>
<path d="M24 4H26V8H24V4Z" fill="#1A1A1A"/>
<path d="M6 6H8V8H6V6Z" fill="#1A1A1A"/>
<path d="M28 6H30V10H28V6Z" fill="#1A1A1A"/>
<path d="M0 8H2V10H0V8Z" fill="white"/>
<path d="M2 8H4V10H2V8Z" fill="#1A1A1A"/>
<path d="M0 10H2V14H0V10Z" fill="#1A1A1A"/>
<path d="M26 10H28V12H26V10Z" fill="#1A1A1A"/>
<path d="M28 12H30V14H28V12Z" fill="#1A1A1A"/>
<path d="M10 18H12V20H10V18Z" fill="white"/>
<path d="M16 18H18V20H16V18Z" fill="white"/>
<path d="M8 24H10V26H8V24Z" fill="white"/>
<path d="M18 24H20V26H18V24Z" fill="white"/>
<path d="M10 26H18V28H10V26Z" fill="white"/>
<path d="M0 28H2V30H6V32H0V28Z" fill="white"/>
</svg>
