<svg width="32" height="32" viewBox="0 0 32 32" fill="none" xmlns="http://www.w3.org/2000/svg">
<path d="M0 0H12V4H10V6H8V8H6V14H4V16H2V18H0V0Z" fill="white"/>
<path d="M12 0H16V6H10V4H12V0Z" fill="#1A1A1A"/>
<path d="M16 0H32V8H30V6H28V8H26V10H24V14H20V8H18V6H16V0Z" fill="white"/>
<path d="M8 6H10V8H8V6Z" fill="#1A1A1A"/>
<path d="M10 6H16V8H14V10H16V8H18V14H14V12H12V14H8V8H10V6Z" fill="white"/>
<path d="M16 6H18V8H16V6Z" fill="#1A1A1A"/>
<path d="M28 6H30V8H28V6Z" fill="#1A1A1A"/>
<path d="M6 8H8V14H6V8Z" fill="#1A1A1A"/>
<path d="M10 8H12V10H10V8Z" fill="#1A1A1A"/>
<path d="M14 8H16V10H14V8Z" fill="#1A1A1A"/>
<path d="M18 8H20V14H18V8Z" fill="#1A1A1A"/>
<path d="M26 8H28V10H30V12H28V14H24V10H26V8Z" fill="#1A1A1A"/>
<path d="M28 8H30V10H28V8Z" fill="white"/>
<path d="M30 8H32V10H30V8Z" fill="#1A1A1A"/>
<path d="M30 10H32V32H0V26H2V28H4V30H22V28H24V26H26V18H24V14H28V12H30V10Z" fill="white"/>
<path d="M12 12H14V14H18V16H8V14H12V12Z" fill="#1A1A1A"/>
<path d="M4 14H6V16H4V14Z" fill="#1A1A1A"/>
<path d="M6 14H8V16H18V14H20V18H18V20H20V18H24V26H22V28H4V26H2V18H4V16H6V14Z" fill="white"/>
<path d="M20 14H24V18H20V14Z" fill="#1A1A1A"/>
<path d="M2 16H4V18H2V16Z" fill="#1A1A1A"/>
<path d="M0 18H2V26H0V18Z" fill="#1A1A1A"/>
<path d="M18 18H20V20H18V18Z" fill="#1A1A1A"/>
<path d="M24 18H26V26H24V18Z" fill="#1A1A1A"/>
<path d="M12 20H14V22H12V20Z" fill="#1A1A1A"/>
<path d="M12 24H14V26H12V24Z" fill="#1A1A1A"/>
<path d="M2 26H4V28H2V26Z" fill="#1A1A1A"/>
<path d="M22 26H24V28H22V26Z" fill="#1A1A1A"/>
<path d="M4 28H22V30H4V28Z" fill="#1A1A1A"/>
</svg>
