<svg width="2268" height="3000" viewBox="0 0 2268 3000" fill="none" xmlns="http://www.w3.org/2000/svg">
<g clip-path="url(#clip0_2_2)">
<path d="M2235.07 183.243C2215.76 143.602 2175.44 92.0208 2136.34 82.707C1881.37 25.6944 1686.01 471.877 1646.82 568.828C1325.59 343.952 883.674 356.681 619.859 531.782C581.215 425.636 394.397 -45.1338 138.933 3.51359C68.865 19.5984 -70.701 176.08 43.1611 487.572C111.331 674.102 94.9267 840.846 149.978 953.3C149.841 953.456 149.685 953.596 149.563 953.774C171.673 989.86 198.574 1043.42 299.314 1072.54C303.545 1073.77 312.714 1076.33 317.386 1077.15C313.897 1225.24 365.441 1376.02 443.317 1500.75C401.993 1643.57 439.969 1741.31 479.54 1798.46C523.475 1861.87 586.568 1901.03 642.736 1918.02C603.877 2045.5 574.511 2223.61 596.127 2357C561.228 2360.4 524.253 2377.27 502.336 2403.79C432.983 2487.8 534.097 2650.4 612.405 2725.79C595.652 2723.61 577.814 2724.17 562.649 2725.01C474.03 2729.83 454.805 2803.94 489.314 2837.46C522.07 2869.33 582.935 2859.62 623.288 2854.01C729.649 2839.2 747.636 2810.43 788.827 2806.99C821.052 2862.19 857.205 2915.08 899.653 2962.63C900.005 2963.04 900.413 2963.37 900.806 2963.7C905.845 2973.15 913.249 2980.4 922.371 2985.86V2985.87C923.027 2986.27 923.706 2986.66 924.384 2987.06C925.371 2987.62 926.4 2988.15 927.432 2988.66H927.554C958.919 3004.39 1015.39 3004.47 1041.49 2984.24C1062 2994.99 1108.97 2971.24 1107.03 2927.66C1130.13 2884.03 1084.92 2832.87 1036.51 2819.73C1068.94 2824.66 1105.79 2826.32 1135.9 2827.35V2827.35C1141.53 2827.54 1139.43 2827.53 1145.06 2827.35C1178.16 2826.21 1211.07 2824.77 1244.21 2819.73C1195.87 2832.85 1150.59 2884.02 1173.7 2927.66C1171.75 2971.22 1218.73 2994.99 1239.24 2984.24C1265.5 3004.6 1321.97 3004.31 1353.17 2988.66H1353.29C1354.33 2988.15 1355.35 2987.62 1356.34 2987.06C1357.02 2986.67 1357.7 2986.28 1358.36 2985.87C1358.36 2985.86 1358.36 2985.86 1358.36 2985.86C1367.47 2980.41 1374.88 2973.14 1379.92 2963.7C1386.71 2958.02 1438.76 2898.03 1491.89 2806.99C1532.19 2810.35 1552.62 2839.42 1657.43 2854.01C1697.79 2859.63 1758.65 2869.34 1791.41 2837.46C1825.77 2804.08 1807.36 2729.87 1718.08 2725.01C1702.91 2724.17 1685.07 2723.61 1668.32 2725.79C1741.19 2655.63 1838.45 2504.67 1787.16 2416.43C1867.2 2355.15 1932.88 2241.97 1958.56 2154.74L1970.68 2113.63L1948.23 2140.21C1997.8 2041.4 2005.28 1959.04 2012.69 1891.8C1986.24 1952.66 1989.12 1947.29 1982.83 1956.92C2000.3 1825.4 1986.83 1780.18 1976.86 1730.35L1967.26 1769.97C1957.91 1808.55 1867.83 2022.76 1736 2119.86C1710.72 2139.32 1686.88 2156.13 1686.46 2156.44C1679.18 2090.25 1664.35 2009.46 1643 1935.19C1678.47 1928.15 1718.46 1909.13 1730.36 1900.3C1798.88 1850.34 1903.84 1732.56 1842.52 1502.98C1896.39 1405.78 1922.14 1294.19 1922.14 1292.15C1922.17 1292.03 1922.18 1291.97 1922.18 1291.97C1921.77 1290.01 1920.96 1288.23 1919.96 1286.64C1928.22 1239.35 1930.98 1193.31 1929.64 1148.91C2185.99 1092.55 2105.12 846.785 2216.65 569.556C2293.89 377.478 2269.3 253.46 2235.07 183.243ZM319.246 1042.43C319.243 1042.43 319.239 1042.43 319.239 1042.43V1042.45C209.555 1014.37 171.694 950.319 150.767 841.08C150.77 841.088 150.774 841.095 150.778 841.099C150.774 841.092 150.774 841.088 150.774 841.084C172.365 882.126 204.572 918.104 259.256 944.468C259.279 944.486 259.279 944.468 259.279 944.468C280.099 954.631 306.277 962.94 330.794 965.751H330.797C325.652 988.878 321.385 1016.55 319.246 1042.43ZM339.295 932.187C299.668 929.006 250.965 908.004 212.536 869.664C139.55 796.834 122.646 589.195 102.452 564.1C95.1288 535.338 86.2855 505.893 75.2887 475.808C31.2205 355.249 8.40545 207.749 77.1199 99.945C90.4015 79.1586 109.275 57.5304 130.273 44.3892C141.89 37.0884 147.162 36.6726 153.217 35.835C208.054 28.2786 259.982 51.0966 303.529 84.0528C303.529 84.0528 303.529 84.0528 303.551 84.0714C364.603 130.383 417.083 202.454 456.71 267.779C456.788 270.145 457.336 272.525 458.441 274.787C505.792 370.537 531.695 516.761 496.851 616.878C451.562 747.493 383.859 776.597 339.295 932.187ZM518.368 2827.13C537.935 2782.22 563.738 2799.38 564.739 2795.92C564.739 2795.91 564.739 2795.91 564.739 2795.9C564.847 2795.5 564.713 2795.09 564.316 2794.95C549.044 2789.51 538.428 2796.08 539.696 2794.81C539.689 2794.82 539.686 2794.83 539.666 2794.83C525.191 2799.61 516.652 2808.73 508.82 2821.56C501.326 2815.24 497.618 2806.62 497.381 2799.09C508.342 2792.4 512.728 2770.08 543.696 2766.62C544.745 2766.49 544.871 2764.72 543.76 2764.7C524.27 2764.11 506.176 2774.75 500.384 2784.33C504.563 2774.63 514.082 2763.43 527.653 2755.9C547.441 2744.91 572.355 2745.39 595.363 2745.55C623.78 2754.13 642.854 2774.36 651.701 2800C651.701 2800.01 651.727 2800.04 651.727 2800.06C654.093 2806.95 655.758 2814.26 656.644 2821.83C621.592 2829.76 549.766 2840.77 518.368 2827.13ZM662.486 2820.51C660.532 2786.99 637.235 2758.1 605.966 2745.48C614.918 2745.36 623.805 2744.8 632.49 2743.2C640.102 2749.02 647.899 2754.13 655.823 2758.06C658.723 2759.5 662.45 2756.23 661.051 2753.16C655.642 2741.37 647.936 2730.25 639.323 2719.49C571.531 2660.67 495 2549.58 504.874 2459.64C508.72 2410.09 551.034 2386.57 599.277 2374.66C603.489 2396.28 608.851 2416.83 618.102 2443.07C618.125 2443.09 618.125 2443.09 618.125 2443.11C635.623 2492.94 717.957 2680.46 774.881 2782.57C752.696 2786.87 737.297 2802.68 662.486 2820.51ZM1052.22 2847.49C1066 2855.5 1075.77 2865.87 1082.81 2879.62C1073.22 2870.52 1060.73 2862.14 1046.74 2856.08C1043.84 2854.82 1040.87 2859.13 1043.67 2860.96C1109.55 2904.48 1091.93 2962.45 1054.67 2964.81C1059.25 2947.75 1052.61 2926.86 1040.37 2911.72C1014.2 2879.35 982.725 2894 984.111 2898.6C984.437 2899.75 985.798 2900.76 987.156 2900.43C1009.72 2894.9 1037.35 2921.91 1034.94 2945.76C1032.34 2971.54 1010.53 2974.93 989.521 2976.29C965.782 2977.83 945.901 2971.51 927.495 2960.48C927.498 2896.52 967.562 2847.92 1052.22 2847.49ZM1291.21 2976.29C1270.2 2974.93 1248.39 2971.54 1245.8 2945.76C1243.38 2921.81 1271.09 2894.92 1293.58 2900.42C1294.94 2900.75 1296.29 2899.75 1296.63 2898.59C1298.05 2893.78 1266.37 2879.55 1240.37 2911.72C1228.13 2926.86 1221.48 2947.75 1226.07 2964.81C1189.01 2962.46 1170.77 2904.76 1237.05 2860.95C1239.85 2859.12 1236.89 2854.82 1233.99 2856.07C1219.75 2862.24 1207.34 2870.69 1197.92 2879.61C1204.89 2866.06 1214.45 2855.68 1228.39 2847.55C1312.36 2848.63 1351.95 2897.69 1351.33 2961.6C1333.45 2971.94 1314.13 2977.77 1291.21 2976.29ZM1750.26 2754.31C1762.32 2760.17 1774.81 2771.54 1780.34 2784.33C1769.31 2766.2 1732.45 2761.12 1736.42 2766.26C1737.09 2767.14 1741.86 2766.48 1750.43 2769.7C1768.71 2776.57 1775.03 2794 1783.34 2799.09C1783.08 2807.11 1779.41 2815.23 1771.91 2821.55C1764.41 2809.31 1754.92 2799.41 1741.06 2794.83C1741.04 2794.83 1741.02 2794.81 1741.02 2794.81C1733.08 2792.2 1724.83 2791.95 1716.41 2794.95C1715.56 2795.26 1715.98 2796.7 1716.86 2796.49C1733.88 2792.36 1747.62 2801.14 1756.64 2815.03C1758.8 2818.34 1760.22 2822.2 1762.36 2827.13C1730.56 2840.95 1657.84 2829.47 1624.08 2821.82C1624.97 2814.25 1626.63 2806.94 1629 2800.05C1629 2800.03 1629.02 2800.01 1629.02 2799.98C1637.87 2774.35 1656.95 2754.12 1685.36 2745.54C1706.97 2745.39 1731.13 2745.03 1750.26 2754.31ZM1688.52 2176.92C1699.76 2169.33 1731.94 2146.29 1746.85 2134.25C1844.5 2062.25 1927.76 1921.75 1972.02 1810.81C1977.2 1881.24 1964.84 1958.19 1954.41 2023.3C1974.72 1998.33 1977.14 1995.43 1980.99 1990.43C1958.97 2092.9 1929.55 2137.1 1865.13 2256.84C1915.14 2204.48 1915.55 2204.15 1925 2193.88C1892.79 2271.66 1842.81 2350.99 1776.56 2401.84C1754.47 2376.48 1718.6 2360.3 1684.6 2356.99C1694.13 2298.13 1693.97 2237.13 1688.52 2176.92ZM1681.38 2374.96C1680.92 2374.77 1680.6 2374.65 1680.6 2374.65C1680.87 2374.72 1681.13 2374.79 1681.41 2374.87C1681.42 2374.79 1681.44 2374.72 1681.45 2374.65C1689.29 2377.22 1704.71 2380.67 1722.54 2389.46C1771.75 2411.7 1783.96 2452.48 1772.85 2505.54C1755.85 2610.47 1661.71 2700.34 1643.48 2716.87C1634.01 2728.44 1625.53 2740.42 1619.68 2753.16C1618.28 2756.23 1622.01 2759.5 1624.91 2758.06C1632.83 2754.12 1640.63 2749.02 1648.24 2743.2C1656.93 2744.8 1665.81 2745.35 1674.77 2745.48C1643.49 2758.09 1620.2 2786.98 1618.25 2820.51C1546.74 2803.46 1525.86 2786.45 1505.86 2782.56C1563.62 2678.92 1645.71 2491.22 1662.61 2443.1C1662.61 2443.09 1662.61 2443.09 1662.64 2443.06C1671.84 2416.91 1677.2 2396.4 1681.38 2374.96ZM1595.56 2545.21C1556.57 2633.67 1520.5 2712.77 1475.51 2790.65H1475.5C1458.3 2820.27 1386.87 2937.53 1358.55 2956.97C1357.03 2894.16 1317.99 2846.68 1242.53 2840.89C1269.63 2830.74 1300.82 2830.75 1323.67 2837.18C1325.79 2839.32 1329.73 2840.94 1333.34 2840.47C1333.49 2840.53 1333.66 2840.61 1333.66 2840.61C1341.04 2843.63 1348.07 2847.66 1353.89 2853.06C1356.36 2855.36 1361.76 2853.13 1359.57 2849.48C1359.56 2849.48 1359.56 2849.47 1359.56 2849.47C1342.94 2821.72 1335.48 2842.19 1351 2809.47C1367.37 2774.76 1361.34 2660.44 1358.96 2622.17C1354.07 2542.36 1344.53 2459.25 1361.05 2375.83C1361.25 2374.77 1359.93 2374.35 1359.39 2374.76C1357.54 2375.69 1346.3 2414.79 1341.37 2444.87C1323.94 2551.38 1342.16 2663.79 1331.26 2771.68C1319.69 2775.08 1243.09 2815.21 1091.32 2803.35C1090.31 2803.1 1069.03 2801.86 1044.38 2798.18C1044.37 2798.18 1044.37 2798.18 1044.36 2798.18C984.377 2789.23 960.895 2775.04 949.478 2771.68C936.126 2639.51 966.327 2501.27 921.865 2375.31C921.621 2374.64 920.912 2374.52 920.356 2374.74C916.749 2376.14 930.557 2403.09 928.84 2496.71C927.079 2592.46 913.467 2656.96 920.86 2767.68C923.857 2812.89 934.798 2810.96 938.392 2830.67C931.598 2835.65 925.737 2841.84 921.169 2849.48C920.235 2851.03 920.724 2852.31 921.74 2853.1C926.697 2856.97 927.409 2848.65 947.076 2840.61C947.106 2840.59 947.143 2840.58 947.176 2840.57C947.254 2840.54 947.332 2840.5 947.403 2840.47C951.17 2840.96 955.071 2839.2 957.072 2837.18C980.325 2830.63 1012.32 2831.29 1037.95 2840.8C962.234 2846.01 922.537 2892.55 920.338 2955.57C893.527 2935.86 823.016 2821.32 805.241 2790.65H805.219C760.85 2713.83 723.645 2632.85 684.82 2544.42C675.58 2532.4 557.912 2370.3 638.556 2021.72C645.954 1988.51 654.826 1955.88 664.915 1923.65C751.896 1941.57 824.304 1909.39 891.049 1852.89C891.561 1853.46 892.095 1854.03 892.681 1854.55C1022.6 1960.9 1054.29 1902 1212.75 1921.93C1361.97 1940.65 1417.17 1889.45 1433.57 1867.55C1487.96 1914.9 1549.34 1944.91 1620.27 1938.48C1621.78 1943.46 1623.3 1948.44 1624.74 1953.44C1624.66 1953.06 1624.61 1952.79 1624.61 1952.79C1626.23 1958.43 1630.11 1972.96 1630.23 1973.39C1737.82 2370.01 1595.56 2545.21 1595.56 2545.21ZM1271.43 2814.86C1288.62 2811.57 1310.69 2807.21 1327.9 2798.69C1327.71 2800.58 1327.63 2802.49 1327.61 2804.39C1325.7 2809.59 1324.11 2814.96 1322.65 2820.48C1306.83 2814.8 1288.86 2813.34 1271.43 2814.86ZM1009.29 2814.86C991.856 2813.34 973.899 2814.8 958.069 2820.48C956.608 2814.96 955.021 2809.59 953.112 2804.39C953.089 2802.5 953.012 2800.59 952.823 2798.69C969.182 2806.79 991.696 2811.5 1009.29 2814.86ZM1299.31 1739.37C1353.21 1779.74 1372.86 1808.59 1408.32 1843.94C1398.65 1861.07 1372.95 1874.22 1354.3 1880.44H1354.28C1313.93 1893.91 1265.35 1893.2 1224.83 1888.89C1044.06 1868.14 1031.26 1922.76 916.803 1830.01C952.878 1796.88 987.565 1760.99 1029.09 1729.55C1029.09 1729.55 1029.09 1729.55 1029.09 1729.55C1067.38 1765.73 1244.4 1777.22 1299.31 1739.37ZM1146.61 1322.14C1105.66 1324.16 1072 1314.9 1071.42 1301.44C1070.85 1287.98 1103.58 1275.43 1144.53 1273.41C1185.48 1271.38 1219.14 1280.64 1219.72 1294.1C1220.29 1307.55 1187.57 1320.11 1146.61 1322.14ZM1850.45 1407.09C1803.64 1522.64 1801.11 1475.95 1813.4 1527.48C1867.83 1755.55 1740.78 1898.37 1609.78 1905.1C1609.79 1905.13 1609.8 1905.16 1609.81 1905.19C1523.6 1909.82 1457.6 1848.65 1399.62 1784.9C1272.93 1645.55 1192.84 1674.31 1180.71 1578.58C1180.25 1563.26 1176.52 1538.92 1175.37 1463.18C1175.38 1463.18 1175.38 1463.18 1175.38 1463.18C1246.68 1450.71 1306.66 1383.69 1305.67 1318.07C1304.59 1246.05 1238.97 1234.82 1158.81 1236.22C1078.66 1237.62 994.732 1252.28 995.815 1324.29C996.831 1391.76 1064.7 1457.88 1139.17 1464.82C1144.98 1557.38 1144.46 1562.48 1146.47 1580.17C1146.64 1593.95 1143.17 1626.3 1109.47 1644.09C1101.01 1648.55 1087.44 1652.74 1061.03 1667.53C912.401 1750.77 840.505 1920.96 675.545 1890.95V1890.95C668.308 1889.63 660.824 1887.82 653.175 1885.55C653.171 1885.55 653.172 1885.55 653.172 1885.55C526.884 1848.1 435.454 1721.25 465.919 1553.86C476.464 1496.01 482.852 1505.58 476.207 1488.74C365.386 1314.96 315.881 1120.53 378.622 925.12C397.51 866.335 426.517 810.772 453.329 773.122C453.352 773.081 453.37 773.044 453.407 773C492.818 716.447 536.615 633.605 544.021 565.253C548.744 521.708 547.506 475.43 540.854 429.5C566.441 486.335 583.71 532.438 590.855 552.32C574.693 564.608 565.657 573.029 564.062 574.564C554.451 583.734 558.649 599.744 571.11 603.345C576.779 604.98 583.12 603.641 587.684 599.288C589.572 597.519 779.013 421.328 1134.87 435.677C1346.6 444.239 1526.39 511.133 1684.56 640.235C1691.86 646.219 1702.65 645.14 1708.62 637.795C1714.6 630.494 1713.5 619.722 1706.2 613.738C1696.02 605.432 1685.76 597.383 1675.41 589.589C1685.41 564.623 1716.38 490.547 1762.67 407.89C1729.6 506.554 1726 587.623 1737.67 638.077C1749.02 687.355 1799.1 771.939 1842.15 888.597C1842.15 888.638 1842.17 888.638 1842.17 888.656C1842.69 890.087 1848.02 904.689 1848.02 905.034C1852 916.254 1858.01 934.76 1861.07 944.938C1869.77 992.133 1943.14 1172.08 1850.45 1407.09ZM1927.78 1114.26C1926.22 1094.21 1923.52 1071.67 1920.39 1052.14C2003.65 1065.35 2067.39 961.08 2104.98 885.09C2080.93 1008.07 2050.43 1084.93 1927.78 1114.26ZM2233.35 347.191C2232.19 378.523 2228.96 410.671 2217.86 456.048V456.067C2211.35 482.489 2205.06 501.592 2197.29 524.121C2197.29 524.121 2197.29 524.122 2197.29 524.14C2196.02 527.696 2191.28 540.481 2191.37 540.259C2180.8 568.142 2159.53 615.618 2138.39 708.753C2136.23 712.079 2088.66 868.4 2027.15 950.834C1963.87 1040.19 1924.78 1015.42 1913.97 1016.88C1904.7 971.699 1893.49 933.314 1878.53 889.746C1811.18 696.657 1759.37 669.401 1765.91 557.325C1775.24 394.33 1888.92 229.339 1891.22 223.774C1940.49 169.75 2011.49 113.356 2084.79 112.095C2098.31 111.561 2123.36 112.918 2135.41 118.936C2138.94 120.816 2147.34 126.029 2148.35 127.135C2211.48 174.211 2235.52 266.348 2233.35 347.191Z" fill="#8000FF"/>
<path d="M918.121 1441.01C903.563 1436.8 888.342 1445.2 884.133 1459.77C877.303 1483.39 902.566 1503.12 923.749 1491.43C944.969 1479.71 941.687 1447.82 918.121 1441.01Z" fill="#8000FF"/>
<path d="M994.937 1520.09C964.899 1522.26 960.483 1565.37 989.649 1573.81C999.267 1576.58 1010.12 1574.04 1017.65 1565.83L1017.68 1565.82C1019.61 1563.67 1021.21 1561.13 1021.99 1559.38C1021.99 1559.38 1022 1559.38 1022 1559.36C1031.23 1540.45 1016.25 1518.38 995.112 1520.07C995.052 1520.05 994.992 1520.06 994.937 1520.09Z" fill="#8000FF"/>
<path d="M907.805 1583.12C885.81 1576.75 866.565 1598.57 874.504 1619.18C874.504 1619.2 874.504 1619.2 874.504 1619.2C883.937 1643.94 919.3 1642.25 926.567 1617.12C930.78 1602.55 922.37 1587.33 907.805 1583.12Z" fill="#8000FF"/>
<path d="M800.165 1499.24C790.729 1496.52 781.003 1499.18 774.498 1504.92C759.715 1517.21 762.073 1544.31 784.127 1551.74C789.419 1553.32 794.198 1553.2 794.869 1552.96C824.436 1550.78 829.657 1507.77 800.165 1499.24Z" fill="#8000FF"/>
<path d="M782.678 1612.91C756.868 1605.43 737.093 1635.84 753.512 1656.27C761.573 1666.61 776.352 1669.9 788.318 1663.32C809.56 1651.61 806.256 1619.72 782.678 1612.91Z" fill="#8000FF"/>
<path d="M1426.96 1456.56C1421.05 1440.29 1401.64 1433.43 1386.78 1442.56C1372.54 1451.31 1369.62 1470.73 1379.55 1482.83V1482.85C1379.96 1483.4 1380.41 1483.93 1380.91 1484.45V1484.47C1400.18 1506.24 1437.47 1485.36 1426.96 1456.56Z" fill="#8000FF"/>
<path d="M1344.96 1540.23C1329.75 1507.83 1282.54 1528.95 1294.21 1561.07C1299.92 1578.25 1322.98 1585.26 1337.73 1572.65C1337.74 1572.65 1337.73 1572.65 1337.74 1572.65C1337.74 1572.65 1337.74 1572.65 1337.74 1572.65C1337.75 1572.65 1337.75 1572.65 1337.75 1572.65C1347.73 1563.82 1349.85 1550.62 1344.96 1540.23Z" fill="#8000FF"/>
<path d="M1411.66 1581.23C1397.39 1586.45 1390.08 1602.2 1395.25 1616.43C1400.43 1630.62 1416.54 1638.66 1431.76 1632.2C1445.98 1626.17 1451.61 1610.72 1446.84 1597.66C1441.67 1583.4 1425.92 1576.06 1411.66 1581.23Z" fill="#8000FF"/>
<path d="M1532.19 1541.88C1544.49 1537.64 1553.11 1523.89 1549.33 1509.03V1509.01C1544.4 1491.53 1525.63 1483.95 1510.4 1491.57C1498.43 1497.62 1492.99 1511.2 1496.27 1523.12C1496.27 1523.12 1496.27 1523.12 1496.27 1523.14C1500.11 1538.18 1516.62 1547.53 1532.19 1541.88Z" fill="#8000FF"/>
<path d="M1561.73 1604.58C1539.65 1591.7 1513.35 1613.57 1522.11 1637.69C1527.63 1652.87 1545.63 1660.75 1561.28 1652.28C1580.07 1641.67 1579.79 1615 1561.73 1604.58Z" fill="#8000FF"/>
<path d="M1381.31 1207.89C1387.32 1211.62 1394.76 1211.2 1400.21 1207.37C1403.53 1205.04 1405.16 1201.96 1404.9 1202.37C1409 1195.71 1408.07 1186.32 1402.12 1180.95C1399.32 1175.36 1304.68 1124.13 1181.47 1114.84C1070.35 1106.43 951.749 1133.55 861.41 1180.78C848.132 1187.52 849.274 1206.97 863.372 1212.04C873.146 1215.61 875.667 1210.94 904.081 1198.61C992.703 1159.21 1093.96 1141.06 1190.47 1150.58C1190.47 1150.6 1190.47 1150.6 1190.49 1150.58C1278.73 1159.21 1364.77 1194.57 1381.31 1207.89Z" fill="#8000FF"/>
<path d="M574.309 951.335C457.492 951.335 362.454 1046.37 362.454 1163.19C362.454 1280 457.492 1375.04 574.309 1375.04C691.122 1375.04 786.16 1280 786.16 1163.19C786.156 1046.37 691.123 951.335 574.309 951.335ZM647.421 1058.04C659.709 1131.16 568.558 1174.77 519.213 1120.02C507.158 1139.84 500.085 1163.03 500.085 1187.92C500.085 1304.32 641.352 1362.52 723.496 1280.79C611.032 1423.15 384.112 1341.45 384.112 1163.19C384.112 1058.31 469.434 972.989 574.308 972.989C690.198 972.989 780.73 1077.36 761.817 1193.73C764.869 1122.76 712.651 1066.16 647.421 1058.04Z" fill="#8000FF"/>
<path d="M1678.72 951.332C1561.9 951.332 1466.87 1046.37 1466.87 1163.19C1466.87 1280 1561.9 1375.04 1678.72 1375.04C1795.54 1375.04 1890.57 1280 1890.57 1163.19C1890.57 1046.37 1795.54 951.332 1678.72 951.332ZM1529.53 1280.79C1611.65 1362.5 1752.94 1304.37 1752.94 1187.92C1752.94 1163.03 1745.87 1139.84 1733.81 1120.02C1684.58 1174.64 1593.23 1131.45 1605.61 1058.04C1540.05 1066.2 1488.08 1123.19 1491.21 1193.74C1472.27 1077.19 1562.92 972.989 1678.72 972.989C1783.6 972.989 1868.91 1058.31 1868.91 1163.19C1868.92 1341.69 1641.9 1423.02 1529.53 1280.79Z" fill="#8000FF"/>
</g>
<defs>
<clipPath id="clip0_2_2">
<rect width="2267.69" height="3000" fill="white"/>
</clipPath>
</defs>
</svg>
