<svg width="2500" height="2500" viewBox="0 0 2500 2500" fill="none" xmlns="http://www.w3.org/2000/svg">
<circle cx="1250" cy="1250" r="1240" fill="white" stroke="#FF005C" stroke-width="20"/>
<g clip-path="url(#clip0_5_249)">
<path d="M2087.8 677.979C2109 513.762 1979.26 381.825 1826.06 381.825C1749.12 381.825 1673.97 409.799 1623.68 468.71C1513.14 365.537 1387.13 350 1321.52 350C1298.64 350 1282.78 351.902 1277.62 352.622C1272.48 351.904 1256.63 350 1233.73 350C1167.51 350 1039.76 365.852 928.486 471.642C878.519 410.998 802.059 381.825 723.597 381.825C570.404 381.825 440.662 513.755 461.85 677.979L461.855 678.01C487.407 865.368 606.07 904.23 685.149 908.667C654.108 969.605 659.087 1018.47 669.782 1084.07C678.25 1062.61 681.299 1051.9 697.825 1031.47C683.673 1107.45 719.073 1209.32 762.109 1240.35L771.003 1246.76C771.003 1232.67 770.693 1222.8 773.689 1203.29C798.747 1280.43 859.34 1351.26 912.264 1362.63L922.654 1364.88C917.287 1351.07 913.172 1341.79 910.43 1320.44C950.24 1358.7 1033.76 1375.19 1088.93 1377.67C1075.04 1405.5 1043.52 1420.5 1013.89 1430.18C984.995 1439.61 903.725 1476.67 903.488 1593.21C834.768 1553.94 746.422 1580.52 704.056 1580.52C633.429 1580.52 590.64 1541.68 586.659 1473.97C582.069 1395.75 422.214 1391.16 444.049 1523.54C460.559 1623.79 529.386 1668.42 630.121 1666.29L634.514 1666.29L634.446 1666.19C679.644 1664.64 690.908 1657.33 729.017 1657.33C783.639 1657.33 832.345 1674.36 865.195 1697.47C830.555 1704.65 814.644 1714.01 798.279 1722.34L798.53 1722.43C768.928 1740.52 748.153 1767.19 742.906 1801.77L742.29 1804.76L742.546 1804.7C741.588 1812.33 741.379 1820.27 741.912 1828.5L741.764 1828.45C743.684 1843.97 744.887 1858.04 755.261 1884.58C727.359 1874.33 689.084 1863.25 649.001 1860.65L648.876 1860.62C610.301 1858.18 571.409 1863.76 537.459 1882.56C449.177 1931.4 457.941 2037.17 516.373 2061.75C516.636 2064.29 517.223 2066.85 518.067 2069.41L518.442 2072.03L518.98 2071.95C532.374 2105.2 588.069 2128.16 632.27 2107.17C632.318 2107.25 632.376 2107.33 632.423 2107.41L632.979 2109.58L633.649 2109.41C654.937 2143.04 732.337 2154.93 770.179 2121.44L770.237 2121.5C775.538 2116.43 780.096 2111.46 784.169 2103.9C797.198 2103.33 819.077 2099.93 845.001 2094.68C860.747 2113.87 890.347 2132.07 911.781 2125.98C912.374 2126.5 915.244 2128.98 916.357 2130.03L916.552 2129.82C947.576 2153.47 987.997 2157.23 1023.45 2136.29C1027.21 2138.49 1025.52 2137.59 1030.2 2140.01L1030.83 2138.79C1085.3 2157.29 1171.97 2136.2 1200.48 2069.28C1235.24 2075.84 1278.92 2076.34 1312.34 2072.24C1341.67 2135 1424.92 2157.72 1480.65 2138.8L1481.29 2140.01C1485.97 2137.59 1484.27 2138.49 1488.04 2136.29C1523.44 2157.21 1563.86 2153.51 1594.94 2129.83L1595.13 2130.04C1596.24 2128.99 1599.11 2126.5 1599.71 2125.99C1621.48 2132.16 1650.84 2113.76 1666.49 2094.69C1692.41 2099.93 1714.29 2103.34 1727.32 2103.91C1731.43 2111.54 1735.87 2116.36 1741.25 2121.5L1741.31 2121.44C1779.46 2155.21 1856.84 2142.59 1877.84 2109.41L1878.51 2109.59L1879.06 2107.42C1879.11 2107.33 1879.17 2107.26 1879.22 2107.17C1922.76 2127.85 1978.81 2105.95 1992.51 2071.96L1993.04 2072.03L1993.42 2069.42C1994.26 2066.86 1994.85 2064.3 1995.11 2061.76C2078.76 2026.56 2050.48 1848.73 1862.61 1860.63L1862.48 1860.65C1822.4 1863.25 1784.13 1874.33 1756.22 1884.58C1766.35 1858.68 1767.78 1844.2 1769.72 1828.45L1769.57 1828.5C1770.11 1820.27 1769.9 1812.33 1768.94 1804.7L1769.2 1804.76L1768.58 1801.78C1763.32 1767.13 1742.5 1740.48 1712.96 1722.44L1713.21 1722.34C1688.48 1709.77 1671.22 1700.19 1622.01 1693.46L1622.01 1693.47C1610.76 1692.07 1600.73 1691.41 1592.81 1691.14C1594.58 1684.3 1596.33 1677.37 1598.04 1670.29C1641.25 1492.05 1532.08 1441.44 1497.59 1430.18C1471.48 1421.65 1442.84 1408.53 1427.34 1385.82C1427.53 1385.46 1427.72 1385.11 1427.91 1384.74L1429.22 1385.44C1430.71 1382.62 1432 1379.96 1433.21 1377.38C1494.74 1381.6 1600.03 1363.49 1644.81 1320.45C1642.03 1342.14 1637.39 1352.57 1632.55 1364.89L1642.97 1362.64C1695.91 1351.27 1756.5 1280.43 1781.55 1203.29C1784.58 1222.97 1784.24 1233.59 1784.24 1246.77L1793.13 1240.36C1836.16 1209.34 1871.57 1107.47 1857.42 1031.49C1873.93 1051.92 1877.13 1062.96 1885.45 1084.06C1890.48 1053.35 1895.81 1024.16 1893.01 988.4L1893.25 988.539C1889.78 962.202 1887.02 941.808 1869.91 908.327C1948.88 902.408 2062.82 861.159 2087.8 677.979ZM1504.34 402.119C1478.07 420.321 1437.88 457.088 1403.41 526.369C1408.07 459.072 1420.83 405.594 1429.52 375.518C1453.26 381.569 1478.51 390.12 1504.34 402.119ZM1277.86 364.513C1292.93 362.318 1311.56 361.649 1326.93 361.851C1307.21 448.845 1284.76 552.232 1275.55 642.973C1256.15 532.06 1220.96 417.245 1203.22 362.933C1248.29 359.684 1275.28 364.359 1277.86 364.513ZM1125.78 375.665C1134.47 405.776 1147.18 459.194 1151.83 526.364C1120.43 463.243 1084.27 427.107 1058.22 407.413C1079.97 394.158 1102.59 383.962 1125.78 375.665ZM474.158 676.373C453.909 519.57 577.932 394.223 723.595 394.223C799.147 394.223 872.269 422.351 919.57 480.352C896.604 503.387 874.435 530.372 853.785 562.048L853.769 561.71C844.289 577.298 836.551 589.201 824.584 612.119C724.493 524.702 529.753 567.027 550.769 662.978L550.774 663.02C578.617 784.565 661.961 827.451 725.024 842.221C713.254 861.47 701.695 878.742 691.661 896.549C616.845 893.858 499.13 859.563 474.158 676.373ZM799.193 666.584C796.019 674.221 792.918 682.032 789.899 690.037L789.847 689.969C777.235 724.819 772.932 739.79 773.016 739.524C762.51 772.533 749.058 801.513 731.755 831.005C671.515 817.774 589.791 777.816 562.875 660.317C545.18 579.427 726.318 539.434 818.703 623.646C809.495 642.172 804.119 654.988 799.172 666.586L799.193 666.584ZM793.286 714.169C807.787 735.127 830.713 772.193 838.919 807.474C822.659 801.081 793.746 791.603 765.212 791.582C779.609 759.837 783.74 741.666 793.286 714.169ZM844.823 599.016C847.969 625.188 854.938 654.089 862.326 676.167C847.935 667.281 830.444 661.705 815.184 658.242C824.182 637.775 833.555 618.845 844.823 599.016ZM985.594 1166.23L986.181 1165.71V1163.81C988.144 1155.76 989.252 1153.1 990.097 1150.55C1037.36 1135.72 1102.48 1122.82 1142.79 1152.27C1148.4 1156.39 1154.97 1147.08 1149.3 1142.39C1111.33 1110.88 1040.51 1125.08 993.6 1140.9C996.945 1132.51 1000.5 1124.6 1007.06 1114.4C1051.58 1045.05 1112.84 1056.95 1174.88 1068.92C1175.39 1102.62 1220.19 1142.99 1275.78 1142.99C1333.01 1142.99 1379.18 1104.18 1380.16 1071.55C1447.59 1059.7 1494.77 1049.62 1533.3 1094.3C1544.2 1107.11 1552.63 1121.11 1559.25 1136.9C1510.24 1120.22 1449.21 1107.99 1405.6 1135.63C1404.83 1136.12 1404.2 1136.5 1402.4 1138C1396.77 1142.68 1403.25 1151.99 1408.92 1147.88C1449.08 1118.22 1515.36 1131.49 1562.98 1146.58C1576.23 1184.3 1577.52 1228.31 1569.09 1266.03C1548.5 1245.01 1504.17 1202.88 1460.92 1181.89C1465.16 1172.88 1467.02 1166.49 1467.08 1166.27L1461.32 1164.45C1461.25 1164.65 1459.06 1170.62 1454.42 1178.9C1437.84 1171.68 1421.54 1167.56 1404.78 1170.39C1400.22 1171.17 1399.3 1177.63 1402.21 1180.86C1406.68 1185.83 1414.5 1175.29 1448.57 1188.39C1442.39 1197.53 1433.81 1207.69 1422.48 1215.84C1412.16 1204.51 1398.05 1192.47 1383.59 1187.26C1377.37 1184.97 1374.19 1196.43 1379.92 1198.75C1390.11 1202.91 1400.55 1209.31 1412.93 1221.78C1402.22 1227.54 1389.56 1231.33 1374.7 1231.33C1337.39 1231.33 1289.86 1221.78 1275.26 1176.28L1268.07 1153.89L1264.11 1177.22C1263.72 1179.51 1253.76 1233.33 1176.08 1231.27C1161.91 1230.9 1149.99 1228.56 1139.93 1225C1151.91 1213.2 1162.07 1207.04 1171.89 1203.09C1177.45 1200.86 1174.41 1189.35 1168.12 1191.64C1153.5 1197.01 1139.58 1208.83 1129.1 1220.37C1115.17 1213.26 1105.78 1203.64 1099.47 1194.43C1137.77 1178.44 1144.62 1190.73 1149.51 1185.23C1152.41 1181.96 1151.45 1175.53 1146.93 1174.78C1128.88 1171.58 1110.62 1177.04 1093.79 1184.83C1088.66 1174.61 1087.23 1166.5 1087.09 1165.59L1081.09 1166.36C1081.11 1166.62 1082.12 1175.96 1087.14 1188.05C1046.83 1208.66 1006.21 1246.6 985.274 1267.71C983.096 1251.87 974.668 1213.4 985.594 1166.23ZM1098.71 1130.06C1120.97 1132.13 1138.52 1140.35 1145.77 1146.96C1145.76 1147.08 1145.72 1147.21 1145.66 1147.32C1134.05 1138.84 1119.79 1132.54 1098.71 1130.06ZM1186.24 1068.34C1186.24 1036.72 1242.34 1032 1275.78 1032C1434.66 1032 1358.79 1131.62 1275.78 1131.62C1227.56 1131.62 1186.24 1096.82 1186.24 1068.34ZM1453.81 1125.6C1432.43 1127.99 1417.71 1134.37 1406.07 1142.91C1406.02 1142.77 1405.99 1142.59 1406.03 1142.37C1414.7 1135.13 1431.35 1127.56 1453.81 1125.6ZM1444.92 1181.17C1433.23 1177.21 1418.32 1174.19 1406.28 1176.64C1406.24 1176.4 1406.22 1176.12 1406.25 1175.9C1419.27 1173.76 1431.79 1176.25 1444.92 1181.17ZM1409.11 1210.46C1399.47 1202.08 1391.04 1197.15 1382.61 1193.7C1382.61 1193.49 1382.64 1193.24 1382.69 1193C1389.45 1195.59 1399.3 1201.44 1409.11 1210.46ZM1143.23 1214.27C1152.85 1205.56 1162.51 1199.91 1169.01 1197.39C1169.07 1197.62 1169.09 1197.88 1169.09 1198.09C1159.52 1201.97 1151.22 1207.44 1143.23 1214.27ZM1109.61 1184.55C1121.08 1180.57 1133.35 1178.17 1145.46 1180.3C1145.48 1180.52 1145.46 1180.79 1145.42 1181.03C1134.41 1178.73 1120.37 1181.21 1109.61 1184.55ZM995.401 1350.7C991.738 1323.08 988.668 1294.49 986.311 1275.66C1006.47 1256.54 1050.35 1217.52 1091.86 1197.82C1097.9 1208.68 1107.27 1220.29 1121.64 1229.15C1083.96 1276.36 1061.59 1348.4 1057.23 1363.29C1034.8 1360.55 1015.25 1356.37 995.401 1350.7ZM1101.7 1378C1108.19 1378.04 1114.52 1377.89 1122.02 1377.37C1123.23 1379.96 1124.53 1382.62 1126.02 1385.43L1127.34 1384.74C1136.02 1401.94 1146.37 1415.77 1157.74 1426.86C1157.16 1454.9 1153.75 1481.79 1147.44 1509.23C1124.79 1479.78 1100.59 1446.82 1079.3 1408.78C1089.1 1400.08 1096.8 1389.81 1101.7 1378ZM1070.27 1415.94C1085.07 1442.14 1102.5 1467.6 1114.02 1483.69C1082.24 1468.69 1054.83 1450.18 1034.8 1434.87C1048.64 1429.29 1060.44 1423.01 1070.27 1415.94ZM938.425 1503.14C956.863 1516.01 980.26 1537.1 998.434 1569.39C981.956 1568.53 948.564 1568.19 915.955 1576.25C918.072 1550.46 924.867 1525.31 938.425 1503.14ZM455.463 1521.67C436.334 1405.42 571.463 1412.54 575.109 1474.64C577.536 1515.88 593.001 1547.39 619.424 1567.34C599.854 1579.66 596.578 1579.02 574.51 1582.74C591.063 1591.55 597.696 1594.58 615.537 1607.48C602.12 1611.25 588 1614.28 576.764 1616.78C592.987 1626.49 591.024 1622.34 612.688 1654.64C523.566 1651.3 469.279 1605.52 455.463 1521.67ZM729.018 1645.76C688.56 1645.76 673.565 1654.3 626.54 1654.79C617.643 1641.8 610.431 1630.29 603.61 1622.34C624.491 1617.25 628.38 1615.42 639.283 1611.33C630.757 1604.64 620.574 1596.46 606.227 1587.37C614.733 1583.95 621.969 1579.17 629.798 1574.27C649.747 1585.94 674.712 1592.08 704.071 1592.08C749.659 1592.08 837.618 1564.48 903.839 1607.1C905.436 1638.48 911.582 1663.64 918.681 1691.13C909.631 1691.43 899.46 1692.21 889.474 1693.45L889.471 1693.45C887.159 1693.77 884.76 1694.05 880.529 1694.7C846.129 1667.02 791.93 1645.76 729.018 1645.76ZM883.325 1705.97C893.102 1724.3 904.034 1748.2 908.55 1770.39C892.649 1757.92 861.877 1735.75 827.385 1721.09C844.944 1713.8 864.162 1708.9 883.325 1705.97ZM777.376 1754.79C794.014 1758.93 815.199 1768.83 832.05 1792.01C808.039 1786.91 781.679 1785.36 757.599 1789.6C761.717 1776.24 768.218 1765.01 777.376 1754.79ZM776.975 1905.53C775.485 1902.2 771.057 1892.29 771.016 1892.2C826.507 1918.71 842.664 1936.75 857.4 1950.55C846.685 1919.57 830.385 1859.18 753.857 1832.41C752.782 1821.62 753.066 1811.4 754.699 1801.77C797.697 1792.55 842.344 1806.31 842.801 1806.45L856.418 1810.74C841.66 1784.21 826.245 1758.12 786.686 1745.63C794.565 1738.74 803.521 1732.79 813.227 1727.71C852.791 1742.4 891.079 1769.59 922.745 1797.29C921.501 1778.56 921.876 1755.44 895.331 1704.39C904.272 1703.4 913.114 1702.84 921.692 1702.63C951.334 1813.62 986.623 1893.51 990.261 1923.28C950.747 1931.39 878.788 1905.83 836.263 1988.82C830.542 1999.98 826.861 2011.25 825.111 2022.39C758.683 1977.79 710.867 1905.94 673.861 1875.02C712.978 1880.98 743.471 1892.08 776.975 1905.53ZM755.728 1845.24C778.612 1854.28 810.799 1873.45 830.895 1913.06C817.508 1903.85 795.985 1890.81 764.707 1876.74C760.63 1865.79 757.631 1855.29 755.728 1845.24ZM920.45 1647.79C933.252 1652.38 950.493 1656.58 970.749 1656.58C1009.78 1656.58 1044.5 1671.1 1074.22 1699.8C1052.9 1694.18 1019.53 1689.72 990.937 1704.83C976.567 1712.44 957.825 1713.65 935.249 1708.46C930.501 1691.09 923.753 1665.45 920.45 1647.79ZM955.992 1778.04C980.128 1768.72 1028.97 1755.71 1073.18 1779.78C1048.46 1782.84 1001.86 1791.95 969.428 1818.57C965.139 1805.98 960.62 1792.46 955.992 1778.04ZM982.24 1855.72C1025.82 1858.54 1059.91 1877.08 1079.9 1891.14C1043.33 1883.81 1012.95 1887.82 994.456 1892.21C991.217 1881.81 987.071 1869.67 982.24 1855.72ZM787.976 2092.04C795.327 2068.73 794.479 2042.93 794.421 2041.38L788.377 2041.3C787.136 2060.97 779.974 2094.87 765.696 2109.74C734.025 2143.12 660.291 2130.48 643.256 2102.93C626.674 2036.47 676.378 1982.62 676.885 1982.09L672.62 1977.8C672.059 1978.33 619.606 2028.42 629.951 2095.35C590.255 2116.22 539.555 2094.21 529.414 2066.89C518.148 1986.53 589.79 1932.93 590.515 1932.39L587.069 1927.42C586.318 1927.92 517.826 1974.07 516.772 2049.12C448.545 2012.92 480.051 1861.86 647.587 1872.16C684.084 1884.26 740.521 1981.98 823.987 2035.48C823.709 2052.34 828.032 2068.93 837.567 2084.29C816.353 2088.45 799.059 2091.11 787.976 2092.04ZM1025.72 2124.11C1013.49 2115.99 1005.42 2105.25 1001.81 2092.03C991.33 2053.64 1020.26 2005.8 1021.5 2003.78L1016.51 2000.36C986.451 2040.37 973.385 2096.57 1012.79 2128.93C955.307 2158.6 891.823 2113.72 894.281 2060.13C896.216 2017.6 939.452 1982.99 939.887 1982.65L936.361 1977.74C934.259 1979.11 884.906 2011.9 882.713 2059.57C881.806 2079.42 888.502 2098.2 902.621 2115.58C886.838 2115.51 862.074 2102.26 847.101 2077.76C836.332 2060.14 827.49 2031.32 846.563 1994.08C886.411 1916.36 955.898 1944.5 996.265 1933.77C1042.66 1949.45 1120.42 2056.49 1196.99 2032.28C1188.67 2127.79 1073.75 2149.15 1025.72 2124.11ZM1197.76 2019.63C1128.32 2047.01 1051.91 1942.35 1001.9 1923.51C1001.38 1918.02 999.93 1911.26 997.683 1903.15C1052.58 1890.29 1093.64 1905.98 1123.99 1916.11L1107.92 1899.44C1105.83 1897.27 1056.59 1847.2 978.23 1844.15C976.669 1839.64 975.061 1835 973.401 1830.18C1015.01 1793.04 1089.63 1789.68 1090.4 1789.65L1106.4 1789.03L1093.58 1779.42C1042.12 1740.82 981.451 1756.14 952.541 1767.18C947.942 1752.54 943.28 1737.06 938.673 1720.78C961.402 1725.05 980.737 1723.09 996.252 1714.89C1036.54 1693.58 1090.71 1717.27 1091.25 1717.51C1104.92 1723.61 1100 1721.41 1113.6 1727.48C1078.7 1685.57 1042.48 1645.21 970.744 1645.21C948.591 1645.21 930.415 1639.78 918.261 1634.74C915.775 1617.84 914.861 1602.36 915.233 1588.19C940.992 1581.31 975.561 1578.05 1018.01 1582.58C999.67 1545.87 980.14 1518.34 944.741 1493.69C965.859 1464.72 991.863 1450.05 1022.28 1439.55C1069.51 1476.73 1104.22 1492.72 1147.28 1509.94C1128.31 1591.8 1092.71 1641.35 1115.11 1706.67L1115.74 1707.95C1146.49 1755.28 1200.33 1923.58 1197.76 2019.63ZM1308.02 2061.09C1276.68 2064.62 1236.45 2064.08 1204.28 2058.22C1208.6 2042.51 1208.94 2028.43 1209.5 2014.49L1209.41 2014.54C1210.12 1921.58 1161.14 1757.33 1125.83 1702.27C1099.89 1625.22 1163.41 1566.41 1169.03 1436.77C1201.36 1462.15 1239.64 1468.9 1271.14 1468.9C1292.53 1468.9 1315.32 1469.36 1344.09 1459.5C1355.5 1574.06 1410.08 1629.74 1385.66 1702.28C1352.92 1753.34 1301.34 1916.5 1302.08 2014.54L1301.99 2014.49C1302.6 2029.56 1303 2044.75 1308.02 2061.09ZM1664.38 2077.76C1649.41 2102.26 1624.65 2115.51 1608.86 2115.58C1622.98 2098.2 1629.68 2079.42 1628.77 2059.57C1626.58 2011.9 1577.23 1979.11 1575.13 1977.74L1571.6 1982.65C1572.04 1982.99 1615.27 2017.6 1617.21 2060.13C1619.65 2113.5 1556.36 2158.69 1498.7 2128.93C1537.96 2096.69 1525.22 2040.61 1494.98 2000.36L1489.99 2003.78C1491.23 2005.8 1520.16 2053.64 1509.68 2092.03C1506.07 2105.25 1498 2115.99 1485.77 2124.11C1436.97 2149.58 1322.79 2127.41 1314.5 2032.29C1391.01 2056.48 1469.17 1949.34 1515.22 1933.77C1555.72 1944.56 1625.06 1916.32 1664.92 1994.09C1684 2031.32 1675.16 2060.14 1664.38 2077.76ZM1431.6 1891.14C1451.58 1877.08 1485.67 1858.54 1529.25 1855.72C1524.42 1869.67 1520.28 1881.81 1517.04 1892.21C1491.02 1886.03 1461.43 1885.16 1431.6 1891.14ZM1863.91 1872.17C1894.3 1870.3 1925.14 1873.52 1953.54 1885.46C2047.1 1924.76 2042.65 2023.69 1994.72 2049.12C1993.67 1974.07 1925.18 1927.92 1924.42 1927.43L1920.98 1932.4C1921.7 1932.93 1993.34 1986.53 1982.08 2066.9C1971.87 2094.39 1921.25 2116.23 1881.54 2095.35C1891.88 2028.43 1839.43 1978.33 1838.87 1977.8L1834.61 1982.09C1835.11 1982.63 1884.82 2036.47 1868.24 2102.94C1851.08 2130.68 1777.35 2143.01 1745.8 2109.74C1731.45 2094.83 1724.32 2060.63 1723.12 2041.3L1717.07 2041.38C1717.01 2042.93 1716.17 2068.73 1723.52 2092.04C1712.43 2091.11 1695.14 2088.45 1673.93 2084.3C1683.27 2069.21 1687.8 2052.79 1687.51 2035.5C1770.87 1982.05 1827.45 1884.26 1863.91 1872.17ZM1753.89 1789.6C1724.53 1784.42 1695.91 1788.52 1679.44 1792.02C1696.29 1768.83 1717.48 1758.94 1734.11 1754.8C1743.26 1765 1749.77 1776.22 1753.89 1789.6ZM1628.16 1705.97C1647.33 1708.9 1666.55 1713.8 1684.11 1721.09C1649.61 1735.75 1618.85 1757.92 1602.95 1770.38C1607.45 1748.21 1618.38 1724.3 1628.16 1705.97ZM1616.15 1704.39C1591.58 1751.63 1590.28 1774.09 1588.75 1797.29C1620.54 1769.45 1658.8 1742.36 1698.26 1727.7C1707.96 1732.79 1716.92 1738.74 1724.8 1745.63C1704.37 1752.08 1679.69 1766.47 1662 1798.26L1655.06 1810.76L1668.69 1806.45C1669.15 1806.3 1713.69 1792.5 1756.79 1801.76C1758.42 1811.39 1758.71 1821.61 1757.63 1832.4C1729.41 1842.27 1682.86 1867.41 1661.6 1928.83L1654.1 1950.54C1667.93 1937.59 1684.19 1919.09 1740.48 1892.2C1740.43 1892.3 1741.1 1890.82 1734.52 1905.53C1766.1 1892.84 1796.86 1881.23 1837.62 1875.01C1800.68 1905.87 1752.71 1977.83 1686.37 2022.38C1681.91 1993.94 1663.29 1962.66 1640.24 1945.76C1600.08 1916.3 1551.01 1929.4 1521.23 1923.27C1524.88 1893.36 1559.97 1814.31 1589.8 1702.62C1598.37 1702.83 1607.21 1703.4 1616.15 1704.39ZM1755.76 1845.24C1753.86 1855.29 1750.86 1865.79 1746.79 1876.74C1715.51 1890.81 1693.98 1903.85 1680.59 1913.06C1700.69 1873.46 1732.87 1854.29 1755.76 1845.24ZM1542.07 1818.57C1509.63 1791.94 1463.04 1782.83 1438.32 1779.78C1482.53 1755.71 1531.36 1768.72 1555.5 1778.03C1550.87 1792.46 1546.35 1805.99 1542.07 1818.57ZM1576.24 1708.45C1520.66 1721.25 1526.18 1694.54 1475.57 1694.54C1461.22 1694.54 1447.78 1697.03 1437.26 1699.79C1466.99 1671.1 1501.72 1656.58 1540.74 1656.58C1561 1656.58 1578.24 1652.38 1591.04 1647.79C1587.73 1665.47 1580.98 1691.14 1576.24 1708.45ZM1595.54 1576.25C1569.42 1569.8 1539.35 1568.01 1513.06 1569.4C1531.23 1537.11 1554.63 1516.02 1573.07 1503.15C1586.55 1525.19 1593.41 1550.39 1595.54 1576.25ZM1566.75 1493.69C1530.87 1518.68 1511.48 1546.57 1493.48 1582.58C1536.06 1578.02 1570.66 1581.36 1596.25 1588.19C1596.63 1602.36 1595.71 1617.83 1593.22 1634.74C1581.08 1639.77 1562.9 1645.21 1540.74 1645.21C1491.42 1645.21 1448.62 1666.56 1413.54 1708.68C1410.75 1712.03 1413.5 1708.72 1397.82 1727.55C1412.28 1721.07 1406.51 1723.66 1420.23 1717.51C1420.77 1717.27 1474.82 1693.51 1515.23 1714.89C1530.75 1723.09 1550.08 1725.05 1572.81 1720.78C1568.21 1737.06 1563.54 1752.54 1558.94 1767.18C1530.04 1756.14 1469.36 1740.82 1417.91 1779.43L1405.09 1789.04L1421.1 1789.66C1421.87 1789.69 1496.43 1792.99 1538.09 1830.18C1536.43 1835.01 1534.82 1839.65 1533.26 1844.16C1454.9 1847.21 1405.65 1897.28 1403.57 1899.44L1387.48 1916.11C1416.78 1906.35 1458.01 1890.1 1513.8 1903.16C1511.56 1911.27 1510.1 1918.03 1509.58 1923.52C1459.39 1942.43 1383.28 2047.06 1313.73 2019.64C1311.15 1923.58 1365 1755.28 1395.75 1707.97L1396.38 1706.68C1418.76 1641.4 1383.16 1591.77 1364.21 1509.95C1403.81 1494.11 1438.97 1479.11 1489.21 1439.56C1519.19 1449.9 1545.43 1464.44 1566.75 1493.69ZM1441.21 1415.94C1451.05 1423 1462.85 1429.29 1476.69 1434.87C1456.65 1450.19 1429.24 1468.7 1397.46 1483.69C1408.99 1467.6 1426.43 1442.14 1441.21 1415.94ZM1432.19 1408.78C1411.39 1445.95 1387.7 1478.48 1364.05 1509.23C1360.24 1492.66 1357.13 1474.74 1355.34 1455.13C1383.84 1442.74 1405.55 1422.55 1421.08 1397.07C1424.36 1401.21 1428.41 1405.42 1432.19 1408.78ZM1438.07 1365.84C1444.78 1347.64 1443.85 1337.82 1443.85 1337.82C1443.85 1337.94 1443.16 1347.51 1435.53 1365.7C1430.83 1365.41 1429.15 1365.23 1424.46 1364.78C1396.87 1429.78 1344.78 1460.32 1277.59 1457C1210.91 1460.15 1158.76 1430.34 1130.86 1364.98H1130.86L1130.77 1364.78C1126.19 1365.22 1124.49 1365.4 1119.73 1365.7C1112.12 1347.56 1111.41 1337.94 1111.4 1337.82C1111.4 1337.82 1110.47 1347.64 1117.18 1365.85C1099.56 1366.75 1080.63 1365.85 1063.1 1363.97C1068.59 1347.59 1093.52 1277.67 1131.24 1234.28C1170.45 1252.18 1244.35 1249.16 1270.25 1194.6C1287.23 1226.85 1323.16 1243.85 1374.7 1243.85C1393.29 1243.85 1408.48 1238.37 1420.82 1230.37C1450.18 1264.42 1476.04 1320.87 1489.76 1363.1L1495.21 1361.47C1493.99 1357.06 1470.89 1275.39 1429.46 1224C1441.36 1214.1 1450.01 1202.04 1455.97 1191.49C1500.11 1211.07 1547.72 1254.23 1567.41 1273.18C1562.02 1295.45 1552.82 1326.6 1543.01 1355.16C1506.24 1364.02 1467.94 1367.38 1438.07 1365.84ZM1880.15 1043.79C1865.65 1019.27 1849.24 1005.51 1832.52 990.119L1840.58 1012.39C1864.93 1079.65 1836.19 1183.55 1795.17 1223.45C1793.34 1194.79 1787.09 1173.89 1782.05 1154.66L1776.94 1177.3C1760.09 1252.32 1702.54 1329.35 1650.77 1348.14C1658.09 1322.81 1657.53 1302.87 1657.66 1284.22C1645.69 1302.17 1633.19 1330.34 1556.14 1351.83C1563.68 1329.29 1571.56 1303.13 1576.96 1281.97L1580.79 1278.38C1580.5 1278.05 1579.67 1277.16 1578.48 1275.86C1582.48 1259.37 1583.57 1251.96 1584.83 1237.97L1584.83 1237.95C1587.26 1208.65 1584.92 1179.2 1576.42 1151.06C1600.95 1159.62 1617.78 1167.61 1618.26 1167.84L1620.81 1162.76C1618.72 1161.67 1599.92 1151.95 1573.4 1141.97C1563.9 1115.32 1549.91 1093.96 1532.22 1076.49C1492.9 1037.88 1436.1 1050.17 1378.66 1060.26C1370.88 1035.24 1333.67 1020.62 1275.78 1020.62C1205.79 1020.62 1182.21 1038.89 1176.43 1057.63C1118.44 1046.45 1068.18 1037.74 1023.2 1078C1002.29 1096.76 988.273 1120.1 979.572 1145.88C952.388 1156.02 933.019 1166.02 930.906 1167.13L933.496 1172.19C935.456 1171.27 952.569 1163.29 976.801 1154.92C975.663 1158.97 974.608 1162.78 973.296 1169.28L972.798 1169.72V1171.76C963.785 1218.94 972.472 1256.53 975.164 1278.17C972.847 1280.64 971.351 1282.28 970.915 1282.76L975.115 1286.6C975.278 1286.43 975.632 1286.07 976.073 1285.63C978.304 1304.27 980.551 1324.58 983.459 1347.05C920.669 1326.11 910.053 1302.89 897.575 1284.24C897.718 1301.69 896.974 1322.11 904.491 1348.14C852.736 1329.34 795.167 1252.32 778.311 1177.3L773.232 1154.58C767.889 1174.99 761.902 1194.93 760.076 1223.44C719.066 1183.54 690.33 1079.64 714.674 1012.39L722.734 990.112C705.356 1006.12 689.683 1019.21 675.108 1043.79C661.28 926.318 715.019 894.697 759.78 803.103C792.78 801.552 825.635 813.696 853.64 826.237C848.918 794.259 838.741 757.67 797.973 701.084C802.037 690.002 806.239 679.247 810.596 668.873C828.742 672.836 856.851 681.372 871.085 698.057L897.211 728.678C886.038 704.027 858.605 651.634 854.753 582.172C909.153 493.477 975.335 439.917 1039.06 407.864C1109.1 452.895 1142.52 531.219 1165.58 585.711C1163.72 523.328 1160.99 456.853 1136.81 372.826C1156.47 368.354 1174.91 365.571 1191.59 363.924C1211.56 424.833 1256.01 569.473 1271.99 695.082L1283.31 694.553C1286.63 595.037 1317.1 456.883 1338.53 362.163C1360.94 363.073 1388.27 365.954 1418.46 372.824C1394.06 457.541 1391.45 526.648 1389.69 585.709L1401.52 557.748C1439.62 467.697 1488.57 425.628 1516.21 407.863C1579.93 439.921 1646.11 493.486 1700.52 582.19C1698.44 619.412 1685.62 667.857 1674.67 692.013L1658.06 728.653L1684.18 698.058C1698.41 681.375 1726.51 672.837 1744.66 668.874C1749.02 679.251 1753.22 690.006 1757.29 701.085C1717.39 756.479 1706.53 792.988 1701.63 826.239C1729.63 813.683 1761.98 801.522 1795.48 803.102C1806.67 825.994 1818.48 845.26 1829.66 863.027C1777.91 861.644 1734.48 893.408 1696.87 926.206C1767.02 932.773 1832.89 954.413 1880.83 981.419C1882.97 999.472 1882.96 1019.85 1880.15 1043.79ZM1765.39 689.964L1765.35 690.025C1762.33 682.022 1759.23 674.218 1756.05 666.578L1756.07 666.576C1750.3 653.056 1744.9 640.195 1734.84 620.235C1827.75 541.15 2004.42 579.617 1986.78 660.268C1960.59 774.618 1882.52 815.54 1822.83 829.859C1789.24 772.308 1784.86 743.703 1765.39 689.964ZM1790.03 791.582C1761.49 791.606 1732.58 801.084 1716.33 807.474C1724.54 772.209 1747.45 735.134 1761.96 714.172C1772.43 744.328 1775.29 759.069 1790.03 791.582ZM1740.06 658.242C1724.81 661.705 1707.31 667.281 1692.92 676.169C1700.3 654.101 1707.27 625.207 1710.43 599.038C1720.91 617.479 1730.76 637.077 1740.06 658.242ZM1878.59 967.215C1816.97 934.469 1751.43 921.901 1724.18 917.819C1773.4 878.229 1812.11 872.217 1837.15 874.924C1856.44 905.623 1871.72 931.818 1878.59 967.215ZM1863.44 896.3C1853.31 878.342 1841.61 860.924 1829.5 841.03C1891.91 825.202 1971.74 781.45 1998.88 662.982C2019.59 568.433 1830.43 525.554 1728.95 608.804C1718.1 588.332 1710.79 577.011 1701.49 561.709L1701.47 562.066C1679.9 528.987 1656.69 500.985 1632.63 477.293C1680.29 421.089 1752.17 394.221 1826.06 394.221C1972.64 394.221 2095.61 520.559 2075.5 676.343C2051.13 855.158 1938.42 892.123 1863.44 896.3Z" fill="#FF005C"/>
<path d="M1274.06 1276C1241.85 1276 1221.39 1253.86 1221.21 1253.66L1216.39 1257.29C1217.21 1258.56 1236.83 1288.51 1274.06 1288.51C1311.95 1288.51 1325 1257.55 1325.12 1257.24L1319.76 1254.49C1319.62 1254.71 1305.68 1276 1274.06 1276Z" fill="#FF005C"/>
<path d="M1466.39 576.068C1451.23 570.569 1406.4 593.499 1398.47 610.931L1395.25 617.918C1468.36 627.723 1566.1 687.143 1604.27 730.597L1625.94 755.255L1613.85 724.711C1568.15 609.91 1472.51 578.028 1466.39 576.068ZM1413.7 609.203C1425.05 597.993 1454.87 583.695 1462.86 586.902C1463.72 587.135 1543.1 612.734 1590.61 701.543C1545.22 662.832 1468.58 619.961 1413.7 609.203Z" fill="#FF005C"/>
<path d="M1160 619.176L1156.77 612.184C1148.85 594.675 1104.01 571.745 1088.85 577.321C1082.81 579.203 987.089 611.163 941.389 725.963L929.296 756.507L950.965 731.849C986.097 691.864 1082.62 629.541 1160 619.176ZM1092.39 588.161C1101.07 584.679 1131.28 600.27 1141.54 610.461C1086.66 621.219 1010.02 664.092 964.715 702.804C1012.06 614.15 1091.53 588.393 1092.39 588.161Z" fill="#FF005C"/>
<path d="M1440.38 793.475C1455.98 792.106 1469.07 804.152 1469.07 819.457C1469.07 833.717 1457.32 845.3 1442.72 845.3C1428.54 845.3 1416.85 834.163 1416.4 820.295C1376.73 885.721 1420.65 972.676 1494.26 972.676C1545.34 972.676 1586.61 928.513 1586.61 873.982C1586.62 792.948 1501 747.187 1440.38 793.475ZM1516.03 927.343C1507.82 927.343 1501.23 920.795 1501.23 912.715C1501.23 904.641 1507.82 898.086 1516.03 898.086C1524.24 898.086 1530.85 904.641 1530.85 912.715C1530.85 920.793 1524.24 927.343 1516.03 927.343Z" fill="#FF005C"/>
<path d="M1476.35 731.848C1396.39 731.848 1331.33 801.767 1331.33 887.703C1331.33 973.638 1396.39 1043.56 1476.35 1043.56C1556.31 1043.56 1621.37 973.638 1621.37 887.703C1621.37 801.767 1556.31 731.848 1476.35 731.848ZM1476.35 1028.79C1404.53 1028.79 1346.1 965.501 1346.1 887.703C1346.1 809.902 1404.53 746.612 1476.35 746.612C1548.18 746.612 1606.6 809.902 1606.6 887.703C1606.6 965.501 1548.17 1028.79 1476.35 1028.79Z" fill="#FF005C"/>
<path d="M1005.59 793.475C1021.2 792.106 1034.28 804.15 1034.28 819.457C1034.28 833.717 1022.54 845.3 1007.93 845.3C993.764 845.3 982.07 834.163 981.611 820.295C941.941 885.723 985.867 972.676 1059.48 972.676C1110.56 972.676 1151.83 928.513 1151.83 873.982C1151.83 792.948 1066.21 747.187 1005.59 793.475ZM1081.25 927.343C1073.04 927.343 1066.45 920.795 1066.45 912.715C1066.45 904.641 1073.04 898.086 1081.25 898.086C1089.46 898.086 1096.07 904.641 1096.07 912.715C1096.07 920.793 1089.46 927.343 1081.25 927.343Z" fill="#FF005C"/>
<path d="M1041.56 731.848C961.603 731.848 896.548 801.767 896.548 887.703C896.548 973.638 961.599 1043.56 1041.56 1043.56C1121.53 1043.56 1186.58 973.638 1186.58 887.703C1186.58 801.767 1121.52 731.848 1041.56 731.848ZM1041.56 1028.79C969.737 1028.79 911.316 965.501 911.316 887.703C911.316 809.902 969.741 746.612 1041.56 746.612C1113.39 746.612 1171.81 809.902 1171.81 887.703C1171.81 965.501 1113.39 1028.79 1041.56 1028.79Z" fill="#FF005C"/>
</g>
<defs>
<clipPath id="clip0_5_249">
<rect width="1648.08" height="1800" fill="white" transform="translate(442 350)"/>
</clipPath>
</defs>
</svg>
