<svg width="2500" height="2500" viewBox="0 0 2500 2500" fill="none" xmlns="http://www.w3.org/2000/svg">
<circle cx="1250" cy="1250" r="1240" fill="white" stroke="#0029FF" stroke-width="20"/>
<g clip-path="url(#clip0_5_226)">
<path d="M2053.9 1605.12L2046.53 1609.94C2074.9 1661.27 2093.72 1740.86 2054.94 1787.85C2038.49 1806.12 2003.33 1812.86 1970.94 1793.47C1969.99 1790.96 1969.06 1788.45 1968.03 1786C1967.31 1754.84 1963.63 1721.61 1956.92 1686.5C1969.21 1580.61 1900.79 1437.45 1772.65 1373.41C1876.19 1323.91 1990.99 1213.14 2058.97 1080.73C2326.55 638.997 1937.87 264.443 1620.31 520.075C1538.24 440.936 1431.77 393.055 1310.72 381.063C1305.04 342.975 1289.43 326.546 1264.32 310.07C1256.61 336.687 1241.47 364.385 1215.41 371.774C1231.32 318.496 1213.23 277.938 1162.72 254.089L1154.07 250C1154.53 303.262 1146.38 353.609 1102.74 389.435C1090.08 399.828 1074.75 407.887 1057.16 413.4C990.07 434.425 933.75 474.756 888.555 527.129C568.984 257.149 171.679 636.503 441.224 1080.36C563.577 1318.64 850.532 1505.25 953.162 1338.77C963.552 1345.78 974.275 1352.32 985.33 1358.35C984.872 1362.94 984.293 1369.32 983.73 1377.27C969.464 1395.16 949.442 1420.38 929.069 1446.39C906.999 1474.57 889.005 1535.91 868.229 1615.13C855.038 1603.82 844.712 1597.41 831.588 1590.24L831.45 1590.48C820.442 1584.8 808.96 1580.35 797.152 1577.24L797.172 1577.08C745.284 1565.4 697.348 1575.11 650.681 1608.34L650.734 1608.45C636.374 1619.16 623.428 1631.94 612.263 1646.4L612.165 1646.3C575.097 1697.03 560.762 1751.34 571.259 1817.65L571.351 1817.62C587.762 1906.88 658.256 1983.33 752.931 1995.35C752.808 1996.28 752.706 1997.22 752.686 1998.17L752.578 1998.23C752.681 1999.35 752.896 2001.56 752.868 2001.27C755.802 2031.67 802.71 2057.25 831.016 2068.95C849.953 2076.76 864.892 2080.87 882.906 2085.51L882.86 2085.34C886.78 2086.28 890.753 2087.18 894.832 2088.02L894.784 2088.11C937.91 2096.32 979.492 2100.73 1055.44 2096.76L1055.41 2096.71C1056.26 2096.66 1057.1 2096.6 1057.94 2096.54L1057.92 2096.6C1084.7 2094.4 1123.79 2090.42 1147.86 2077.18C1175.13 2113.44 1244.71 2134.4 1289.1 2143.96L1289.09 2143.94C1310.69 2148.15 1336.97 2151.17 1359.19 2149.56C1380.55 2148 1408.56 2148.58 1434.86 2146.35C1436.62 2146.18 1438.52 2146.03 1440.01 2145.9L1439.99 2145.85C1515.38 2138.31 1534.39 2106.48 1532.15 2058.66L1532.06 2058.63C1531.1 2045.28 1522.82 1995.47 1523.21 1924.68C1532.26 1951.23 1543.88 1974.44 1557.96 1994.24C1579.93 2088.47 1640.85 2149.57 1739.69 2149.57C1842.1 2149.57 1957.98 2080.47 1981.27 1948.38C1984.76 1928.63 1987.11 1903.65 1986.87 1882.63C2042.09 1894.95 2087.06 1865.17 2112.04 1812.26C2140.97 1751.01 2094.36 1658.55 2053.9 1605.12ZM2081.79 1013.12C2080.08 1017.78 2064.05 1049.15 2048.49 1074.88C1930.47 1304.72 1662.77 1479.54 1563.35 1341.38C1724.87 1252.71 1785.75 1094.54 1786.01 911.746C1781.21 828.026 1763.2 750.897 1732.97 682.7C1958.23 509.141 2211.49 734.615 2081.79 1013.12ZM2129.15 868.482C2132.25 660.689 1924.35 524.638 1727.92 671.629C1703.01 618.594 1670.22 570.422 1628.89 528.571C1887.86 321.259 2186.4 545.341 2129.15 868.482ZM880.846 536.321C844.459 580.86 815.742 633.388 794.924 689.825C595.283 515.357 367.993 650.422 371.232 868.469C313.139 540.518 620.7 316.453 880.846 536.321ZM451.695 1074.52C435.156 1047.2 420.39 1017.61 418.596 1013.12C285.351 726.99 557.659 493.003 790.566 701.991C714.704 921.526 754.384 1196.04 943.3 1331.92C847.54 1489.46 570.418 1305.68 451.695 1074.52ZM1060.74 424.865C1130.62 402.972 1164.15 344.199 1166.08 269.313C1206.99 292.225 1218.71 328.528 1200.91 377.356L1197.72 386.097L1207 385.401C1245.42 382.513 1264.24 345.708 1270.81 329.127C1291.42 345.629 1297.03 366.91 1300 392.129C1785.73 436.328 1893.49 1029.1 1643.88 1268.01C1599.8 1310.2 1545.23 1342.45 1480.57 1364.68C1500.13 1295.94 1502.03 1213.72 1485.7 1119.08C1484.36 1111.28 1472.48 1113.29 1473.87 1121.13C1513.21 1349.2 1444.58 1503.04 1275.39 1566.03C1199.9 1594.16 1128.12 1593.26 1050.34 1574.3L1054.11 1584.81C1054.19 1585.04 1062.35 1608.29 1052.45 1628.16C1033.73 1665.73 953.564 1670.39 921.66 1611.57C882.976 1540.19 950.374 1445.15 1067.65 1475.92C1100.41 1484.47 1136.05 1479.28 1157.16 1452.6C1204.05 1393.35 1170.79 1238.62 1154.67 1163.99C1153.02 1156.23 1141.26 1158.72 1142.92 1166.49C1160.86 1250.67 1176.14 1339.97 1165.92 1399.07C625.035 1346.57 676.597 545.269 1060.74 424.865ZM1206.57 1595.97C1191.47 1617.74 1184.99 1636.4 1180.4 1658.88C1176.41 1636.3 1169.62 1610.91 1165.81 1599.72C1179.51 1599.22 1193.11 1597.96 1206.57 1595.97ZM994.832 1363.38C994.558 1363.73 994.309 1364.04 994.023 1364.4C994.066 1363.93 994.107 1363.48 994.148 1363.04C994.373 1363.16 994.607 1363.27 994.832 1363.38ZM835.219 1602.82C845.932 1609.06 856.111 1616.54 865.628 1625.1C860.523 1644.68 855.036 1666.08 848.981 1689.33C824.417 1673.1 814.163 1643.52 835.219 1602.82ZM786.791 1584.26C783.777 1598.6 773.121 1618.82 740.892 1638.49C708.297 1658.38 681.997 1644.14 662.767 1611.14C701.338 1584.99 746.854 1576.27 786.791 1584.26ZM613.346 1660.46C630.549 1678.35 654.171 1711.63 640.012 1749.39C625.971 1784.16 596.927 1799.36 578.774 1805.68C572.238 1756.26 583.539 1703.59 613.346 1660.46ZM755.7 1986.46C661.47 1975.34 595.514 1897.27 580.354 1814.88C600.67 1808.11 632.922 1791.59 648.612 1752.74C664.785 1709.61 638.273 1672.69 618.879 1652.92C629.428 1639.09 641.689 1626.87 655.279 1616.6C677.28 1653.8 708.995 1668.76 745.701 1646.37C780.31 1625.25 792.222 1602.91 795.745 1586.41C806.512 1589.3 816.991 1593.36 827.055 1598.52C803.452 1644.35 815.79 1680.25 846.545 1698.66C841.48 1718.02 836.152 1738.07 830.501 1758.61C770.39 1773.68 724.55 1815.55 708.589 1856.2L714.079 1858.61C714.53 1857.69 748.011 1791.91 827.578 1769.17C808.192 1838.87 785.014 1913.75 755.7 1986.46ZM762.473 2003.04C780.367 1992.46 805.125 1982.48 824.169 1990.88C846.423 2000.67 862.686 2047.86 869.825 2072.54C804.825 2054.31 767.258 2024.48 762.473 2003.04ZM909.278 2081.45C952.453 2010.13 992.31 2018.42 1039.06 2088.34C981.093 2090.65 940.492 2086.92 909.278 2081.45ZM1060.93 2087.14C1057.36 2087.41 1053.63 2087.64 1049.78 2087.85C997.659 2006.97 947.635 1997.61 899.603 2079.67C892.926 2078.35 886.446 2076.91 880.202 2075.36C871.776 2044.52 854.299 1994.05 827.884 1982.43C807.542 1973.48 783.145 1981.27 763.477 1991.87C856.186 1763.06 886.961 1515.12 936.334 1452.1C963.858 1416.96 990.787 1383.21 1003.29 1367.6C1053.74 1391.98 1107.88 1405.49 1163.44 1410.95C1154.28 1447.11 1134.05 1466.81 1098 1467.6C1088.96 1467.8 1079.16 1466.51 1070.68 1464.29C944.932 1431.31 866.632 1535.23 911.102 1617.29C954.141 1696.64 1082.13 1679.22 1068.29 1592.83C1082.38 1595.12 1125.65 1600.22 1155.52 1599.94C1198.42 1714.59 1177.52 1905.38 1162.59 2002.6C1110.92 1991.85 1077.58 2036.84 1060.93 2087.14ZM1152.2 2062.47C1150.09 2065.15 1135.59 2080.04 1070.99 2086.25C1086.47 2042.35 1115.79 2001.97 1161.18 2011.74C1156.71 2039.77 1153.02 2058.43 1152.2 2062.47ZM1155.58 2072.07C1159.13 2069.14 1160.38 2066.95 1160.7 2066.29L1160.75 2066.14C1160.77 2066.09 1160.81 2066.03 1160.83 2065.99C1161.61 2063.5 1165.49 2041.78 1166.08 2038.41C1178.65 2032.01 1192.41 2028.95 1205.41 2034.13C1243.71 2049.45 1267.15 2107.33 1275.44 2131.51C1228.4 2120.27 1175.54 2098.24 1155.58 2072.07ZM1390.98 2139.09C1350.9 2140.21 1340.08 2143.09 1302.2 2136.88C1312.49 2108.53 1331.43 2075.6 1361.42 2075.34C1397.16 2075.34 1415.33 2107.87 1427.05 2137.69C1414.92 2138.51 1402.77 2138.81 1390.98 2139.09ZM1441.75 2136.41C1431.52 2089.24 1484.55 2056.15 1523.2 2065.7C1524.06 2119.72 1480.8 2132.14 1441.75 2136.41ZM1553.25 1969.55C1531.71 1931.65 1517.79 1883.18 1511.95 1824.74C1499.65 1734.46 1514.34 1663.45 1555.6 1613.71C1610.17 1547.9 1694.03 1542.69 1694.87 1542.64C1694.87 1539.69 1694.87 1541.05 1694.86 1536.65C1643.37 1534.3 1571.2 1568.1 1533.14 1629.18C1526.94 1610.64 1518.66 1596.45 1518.18 1595.64L1512.87 1598.42C1519.27 1612.29 1523.96 1626.32 1527.05 1639.6C1500.71 1688.17 1492.54 1750.62 1502.79 1825.83C1505.28 1850.78 1509.26 1873.92 1514.62 1895.31C1511.52 1975.56 1520.1 2031.24 1522.57 2056.12C1483.8 2048.28 1431.69 2077.32 1431.34 2124.03C1417.98 2093.93 1397.32 2065.2 1359.84 2066.12C1321.94 2066.99 1301.13 2112.21 1292.94 2135.37C1290.63 2134.94 1288.31 2134.48 1285.99 2134C1271.92 2089.99 1237.97 2022.26 1191.54 2022.26C1183.39 2022.26 1175.43 2024.27 1167.97 2027.37C1169.49 2018.38 1170.51 2011.88 1171.59 2004.88L1171.43 2004.84C1182.82 1929.78 1197.85 1798.23 1184.76 1688.62C1190.22 1649.39 1195.8 1625.03 1219.57 1593.8C1335.24 1572.38 1436.19 1500.33 1476.22 1378.77C1503.4 1369.89 1528.89 1359.3 1552.68 1347.04C1601.5 1416.03 1683.43 1412.79 1761.44 1378.54C1893.06 1440.73 1959.04 1582.72 1947.87 1684.26L1947.12 1684.41C1952.43 1712.12 1956.1 1737.2 1957.9 1765.31C1951.25 1753.37 1944.46 1743.66 1937.14 1734.84L1937.17 1734.82C1883.49 1673.64 1810.66 1653.35 1730.33 1669.46L1730.33 1669.52C1705.95 1674.87 1683.03 1684.03 1662.29 1696.6L1662.26 1696.55C1609.16 1729.67 1574.66 1776.43 1558.19 1839.47L1558.25 1839.52C1549.31 1875.29 1546.63 1924.86 1553.25 1969.55ZM1922.61 1732.35C1888.9 1750.12 1848.8 1760.06 1809.02 1757.27C1759.49 1753.83 1744.87 1706.67 1740.58 1676.86C1805.54 1665.07 1875.51 1682.04 1922.61 1732.35ZM1653.89 1821.93C1622.06 1850.27 1592.31 1850.44 1568.78 1835.53C1583.18 1783.1 1615.17 1738.5 1659.19 1709.43C1672.56 1733 1694.78 1785.51 1653.89 1821.93ZM1711.34 2138.62C1590.24 2123.5 1546.5 1993.28 1561.81 1870.51C1562.9 1861.77 1564.49 1853.23 1566.46 1844.89C1598.52 1863.5 1631.8 1853.97 1660.03 1828.82C1705.85 1788.01 1682.11 1730.97 1667.02 1704.55C1686.71 1692.61 1708.4 1683.79 1731.51 1678.62C1736.35 1711.89 1752.87 1762.63 1808.38 1766.48C1850.9 1769.39 1893.24 1758.73 1928.92 1739.44C1939.3 1751.72 1948.38 1765.51 1956.46 1782.89C1892.05 1825.6 1894.2 1904.37 1974.77 1929.73C1955.94 2074.09 1830.97 2153.47 1711.34 2138.62ZM1975.82 1920.37C1904.8 1896.88 1904.43 1829.57 1960.21 1791.5C1975.54 1829.05 1980.79 1872.37 1975.82 1920.37ZM2103.7 1808.33C2079.94 1858.67 2037.92 1885.67 1986.66 1873.08C1985.66 1849.38 1981.87 1827.03 1975.37 1806.26C2009.01 1821.8 2044.46 1813.3 2061.94 1793.87C2096.13 1752.44 2087.33 1694.22 2075.11 1654.81C2098.54 1696.45 2125.93 1761.24 2103.7 1808.33Z" fill="#0029FF"/>
<path d="M1324.55 1802.6C1272.55 1794.13 1233.76 1817.84 1232.14 1818.86L1235.16 1824.04C1236.08 1823.55 1328.13 1775.38 1411.54 1859.83L1416.18 1856.07C1415.08 1854.41 1388.6 1815.27 1324.55 1802.6Z" fill="#0029FF"/>
<path d="M1222.08 1896.64L1216.57 1899C1217.33 1900.92 1236.32 1946.05 1316.76 1946.05C1356.82 1946.05 1391.46 1932.63 1392.92 1932.06L1391.07 1926.36C1254.64 1961.24 1222.38 1897.27 1222.08 1896.64Z" fill="#0029FF"/>
<path d="M976.431 1748.49C929.534 1738.39 894.552 1761.94 893.089 1762.95L896.321 1768C897.068 1767.56 971.827 1724.78 1042.39 1797.38L1046.91 1793.45C1045.79 1792 1018.94 1758 976.431 1748.49Z" fill="#0029FF"/>
<path d="M904.227 1875.2C877.195 1859.83 870.516 1835.24 870.459 1835.02L864.575 1836.16C870.257 1876.26 919.23 1899.98 959 1897.27C997.51 1895.09 1026.87 1883.07 1028.1 1882.56L1026.09 1876.91C974.301 1892.31 933.297 1891.74 904.227 1875.2Z" fill="#0029FF"/>
<path d="M1802.14 1951.07C1723.22 1934.01 1652.9 1954.07 1652.2 1954.27L1653.77 1960.07C1654.45 1959.9 1722.83 1943.36 1800.19 1960.09C1876.07 1976.5 1895.64 1994.94 1896.44 1995.72L1900.89 1991.71C1900.13 1990.76 1881.49 1968.23 1802.14 1951.07Z" fill="#0029FF"/>
<path d="M1387.55 1178.29C1276.02 1113.24 1213.83 1194.33 1213.83 1194.33C1280.65 1156.91 1387.55 1178.29 1387.55 1178.29Z" fill="#0029FF"/>
<path d="M1216.69 1272.82C1275.07 1240.13 1368.47 1258.81 1368.47 1258.81C1271.02 1201.97 1216.69 1272.82 1216.69 1272.82Z" fill="#0029FF"/>
<path d="M1229.66 1345.58C1276.81 1319.18 1352.26 1334.27 1352.26 1334.27C1273.55 1288.36 1229.66 1345.58 1229.66 1345.58Z" fill="#0029FF"/>
<path d="M1519.01 979.517C1571.8 979.517 1614.45 933.882 1614.45 877.53C1614.45 793.792 1525.98 746.5 1463.33 794.335C1479.46 792.921 1492.98 805.37 1492.98 821.185C1492.98 835.925 1480.84 847.897 1465.75 847.897C1451.1 847.897 1439.02 836.388 1438.55 822.053C1397.55 889.661 1442.94 979.517 1519.01 979.517ZM1541.51 902.437C1549.99 902.437 1556.83 909.211 1556.83 917.555C1556.83 925.907 1549.99 932.669 1541.51 932.669C1533.03 932.669 1526.22 925.904 1526.22 917.555C1526.22 909.211 1533.03 902.437 1541.51 902.437Z" fill="#0029FF"/>
<path d="M1500.5 1052.76C1583.13 1052.76 1650.36 980.513 1650.36 891.708C1650.36 802.901 1583.13 730.651 1500.5 730.651C1417.87 730.651 1350.64 802.901 1350.64 891.708C1350.65 980.511 1417.87 1052.76 1500.5 1052.76ZM1500.5 745.893C1574.73 745.893 1635.1 811.302 1635.1 891.706C1635.1 972.102 1574.73 1037.51 1500.5 1037.51C1426.28 1037.51 1365.9 972.102 1365.9 891.706C1365.9 811.307 1426.28 745.893 1500.5 745.893Z" fill="#0029FF"/>
<path d="M991.77 794.332C1007.9 792.919 1021.41 805.368 1021.41 821.182C1021.41 835.922 1009.28 847.895 994.184 847.895C979.542 847.895 967.457 836.385 966.984 822.051C925.99 889.661 971.382 979.523 1047.45 979.523C1100.24 979.523 1142.89 933.888 1142.89 877.535C1142.89 793.789 1054.42 746.5 991.77 794.332ZM1069.95 932.674C1061.47 932.674 1054.66 925.909 1054.66 917.558C1054.66 909.211 1061.47 902.439 1069.95 902.439C1078.43 902.439 1085.26 909.214 1085.26 917.558C1085.26 925.904 1078.43 932.674 1069.95 932.674Z" fill="#0029FF"/>
<path d="M1028.94 730.649C946.309 730.649 879.085 802.899 879.085 891.706C879.085 980.511 946.309 1052.76 1028.94 1052.76C1111.57 1052.76 1178.8 980.51 1178.8 891.706C1178.8 802.897 1111.57 730.649 1028.94 730.649ZM1028.94 1037.51C954.717 1037.51 894.342 972.102 894.342 891.706C894.342 811.301 954.719 745.894 1028.94 745.894C1103.16 745.894 1163.54 811.305 1163.54 891.706C1163.54 972.105 1103.17 1037.51 1028.94 1037.51Z" fill="#0029FF"/>
</g>
<defs>
<clipPath id="clip0_5_226">
<rect width="1796.33" height="1900" fill="white" transform="translate(352 250)"/>
</clipPath>
</defs>
</svg>
