<svg width="2500" height="2500" viewBox="0 0 2500 2500" fill="none" xmlns="http://www.w3.org/2000/svg">
<circle cx="1250" cy="1250" r="1240" fill="white" stroke="#824600" stroke-width="20"/>
<g clip-path="url(#clip0_5_229)">
<path d="M810.805 1551.8C788.971 1588.33 764.635 1621.64 739.832 1648.81C630.814 1768.23 510.682 1710.08 524.812 1625.97L526.706 1614.71L515.581 1617.31C452.587 1632.06 427.98 1539.43 495.442 1474.18L508.406 1461.64L490.378 1461.11C430.065 1459.36 436.526 1375.07 488.373 1329.71C544.94 1280.23 597.363 1324.23 674.858 1278.56C691.476 1268.77 704.952 1253.36 717.049 1235.94C713.758 1231.97 710.479 1227.78 707.227 1223.37C680.007 1263.87 652.84 1285.2 574.759 1287.5C542.174 1288.46 511.399 1289.37 478.365 1318.26C418.682 1370.48 415.778 1458.83 474.546 1474.16C412.536 1546.04 440.527 1640.24 508.653 1633.81C505.522 1688.3 549.856 1731.88 611.685 1731.88C700.584 1731.88 769.712 1646.77 816.541 1571.21C814.544 1564.86 812.648 1558.37 810.805 1551.8Z" fill="#824600"/>
<path d="M729.443 1205.7C729.465 1208.95 729.673 1212.43 729.99 1215.99C730.792 1214.69 731.586 1213.38 732.383 1212.07C731.358 1209.89 730.365 1207.75 729.443 1205.7Z" fill="#824600"/>
<path d="M2021.62 1318.26C1988.58 1289.37 1957.8 1288.46 1925.22 1287.5C1832.03 1284.75 1811.57 1256.33 1773.03 1191.55C1763.38 1175.34 1753.97 1159.57 1743.67 1146.91C1740.39 1150.79 1736.95 1154.62 1733.4 1158.41C1747.03 1175.77 1759.69 1199.78 1773.86 1222.23C1806.99 1274.71 1837.85 1300.14 1924.77 1302.7C1955.85 1303.61 1982.68 1304.41 2011.61 1329.71C2048.74 1362.2 2058.77 1407.62 2049.34 1433.86C2038.67 1463.58 2011.57 1461.05 1991.57 1461.63L2004.54 1474.17C2071.76 1539.2 2047.69 1632.16 1984.39 1617.31L1973.27 1614.7C1975.74 1629.44 1978.22 1640.66 1974.2 1657.18C1958.46 1721.74 1855.4 1753.17 1760.15 1648.81C1734.48 1620.69 1709.32 1586 1686.91 1547.97C1684.82 1554.04 1682.62 1560.09 1680.32 1566.11C1727.3 1643.37 1797.87 1731.87 1888.3 1731.87C1949.78 1731.87 1994.48 1688.61 1991.33 1633.81C2059.32 1640.24 2087.56 1546.15 2025.44 1474.16C2084.35 1458.79 2081.2 1370.4 2021.62 1318.26Z" fill="#824600"/>
<path d="M1002.08 2040.38L1011.4 2028.08L1010.59 2028.18C1006.63 2033.27 1004.12 2037 1002.08 2040.38Z" fill="#824600"/>
<path d="M1104.16 1837.02C1102.81 1871.69 1097.44 1919.04 1132.48 1919.04C1183.38 1915.82 1197.71 1923.73 1201.5 1927.28C1203.15 1928.82 1203.37 1930 1203.37 1930.95C1203.37 1961.2 1156.77 1955.45 1097.74 2016.32C1033.96 2082.07 1016.06 2148.77 987.333 2134.59C973.568 2128.4 969.125 2086.4 999.534 2043.9L988.532 2037.29C990.678 2033.73 991.445 2032.41 992.627 2030.61C922.952 2041.46 892.349 2109.09 879.862 2107.23C867.064 2106.03 861.842 2068.39 885.071 2024.95C908.576 1980.99 1024.16 1956.36 1037.36 1935.2C1045.71 1921.86 1043.87 1873.56 1041.37 1839.64C1036.93 1839.02 1032.44 1838.08 1027.91 1836.94C1030.65 1873.09 1032.21 1918.56 1026.17 1928.21C1016.62 1943.5 899.562 1969.87 873.429 2018.73C849.312 2063.83 849.621 2117.65 878.658 2120.39C902.916 2122.45 922.983 2062.81 982.089 2046.29C955.601 2089.97 959.446 2136.54 981.704 2146.53C1010.53 2160.79 1029.82 2128.34 1049.3 2099.63C1089.05 2041.07 1116.88 2006.42 1178.95 1973.75C1200.79 1962.26 1216.56 1953.95 1216.56 1930.95C1216.56 1902.98 1159.81 1904.07 1131.91 1905.86C1111.56 1905.73 1116.29 1866.87 1117.43 1835.01C1113.18 1835.72 1108.78 1836.4 1104.16 1837.02Z" fill="#824600"/>
<path d="M1060.13 1976.87L1054.08 1969.55C1032.78 1985.9 1004.07 2011.51 988.538 2037.29C989.041 2037.6 999.343 2043.79 999.849 2044.09C1014.27 2020.16 1039.58 1995.28 1060.13 1976.87Z" fill="#824600"/>
<path d="M1469.5 2025.73L1468.68 2025.62L1477.97 2037.87C1475.94 2034.52 1473.44 2030.79 1469.5 2025.73Z" fill="#824600"/>
<path d="M1438.79 1836.24C1436.26 1870.21 1434.32 1919.3 1442.73 1932.76C1456.02 1954.03 1571.4 1978.34 1595.02 2022.5C1618.37 2066.18 1612.82 2103.59 1600.27 2104.78C1587.68 2106.23 1556.66 2038.93 1487.46 2028.15C1488.6 2029.89 1489.06 2030.7 1491.55 2034.83L1480.56 2041.46C1510.2 2082.88 1507.06 2125.7 1492.6 2132.21C1464.35 2146.15 1445.4 2078.86 1382.35 2013.86C1323.62 1953.31 1276.73 1958.56 1276.73 1928.49C1276.73 1927.54 1276.95 1926.37 1278.59 1924.82C1286.5 1917.41 1312.32 1914.33 1347.93 1916.6C1381.01 1916.6 1377.6 1873.16 1376.16 1840.12C1371.55 1839.79 1367.13 1839.31 1362.89 1838.71C1364.23 1870.29 1366.79 1903.29 1348.18 1903.41C1320.34 1901.63 1263.53 1900.52 1263.53 1928.49C1263.53 1951.5 1279.3 1959.8 1301.16 1971.31C1363.34 2004.03 1391.19 2038.85 1430.84 2097.26C1449.47 2124.71 1469.42 2158.42 1498.23 2144.14C1522.83 2133.09 1522.33 2083.98 1497.99 2043.83C1556.89 2060.29 1577.19 2120 1601.45 2117.93C1630.8 2115.15 1630.59 2061.03 1606.66 2016.27C1580.65 1967.63 1463.39 1940.91 1453.92 1925.76C1448.03 1916.33 1449.28 1872.33 1452.27 1833.49C1448 1834.51 1443.51 1835.42 1438.79 1836.24Z" fill="#824600"/>
<path d="M1426.01 1967.1L1419.96 1974.42C1440.7 1992.95 1465.9 2017.83 1480.25 2041.66C1480.75 2041.36 1491.01 2035.16 1491.55 2034.83C1476.15 2009.28 1447.08 1983.28 1426.01 1967.1Z" fill="#824600"/>
<path d="M1191.58 1794.31C1175.32 1805.79 1137.25 1824.52 1059.69 1827.44C1041.29 1828.2 1021.51 1823.15 1001.34 1812.81C927.372 1774.91 871.922 1683.1 841.684 1603.67C810.703 1522.28 791.55 1419.99 797.771 1300.52C793.373 1297.13 789.123 1293.59 785.101 1289.91C767.016 1575.54 897.851 1803.88 1027.91 1836.93C1071.93 1848.12 1177.18 1832.02 1210.35 1795.8L1211.63 1795.79C1205.06 1795.61 1198.64 1795.16 1191.58 1794.31Z" fill="#824600"/>
<path d="M1752.53 434.589C1783.49 434.899 1805.35 429.751 1820.06 424.004C1785.09 468.546 1739.75 498.103 1689.11 521.381C1807.87 694.417 1853.51 881.481 1846.64 994.343C1833.69 962.752 1819.92 956.24 1810.2 950.321C1805.32 1022.66 1771.05 1104.15 1713.51 1159.85C1713.59 1159.77 1716.32 1157.27 1717.25 1156.41L1726.06 1165.99C1777.5 1114.64 1810.34 1043.91 1820.95 975.655C1838.48 997.719 1843.13 1028.24 1849.56 1057.48L1855.8 1027.04C1874.32 936.754 1840.75 722.636 1708.78 526.781C1811.41 477.231 1847.45 407.054 1847.84 406.282L1869.06 363.87L1837.09 398.842C1836.89 399.055 1817.22 419.056 1764.15 421.223C1765.95 418.487 1767.64 415.636 1769.25 412.721C1763.91 420.403 1758.46 427.46 1752.53 434.589Z" fill="#824600"/>
<path d="M1777.18 350.021C1773.71 366.096 1767.63 387.95 1757.79 406.074C1757.91 405.904 1760.1 402.768 1760.87 401.666L1771.28 408.912C1787.33 377.536 1792.95 339.332 1794.06 330.62C1794.67 329.763 1795.46 328.588 1796.39 327.138C1790.39 334.686 1783.99 342.325 1777.18 350.021Z" fill="#824600"/>
<path d="M781.316 1286.33C780.911 1285.94 780.494 1285.55 780.098 1285.15C780.5 1285.55 780.909 1285.94 781.316 1286.33Z" fill="#824600"/>
<path d="M717.048 1235.94C720.55 1240.17 720.129 1239.64 741.6 1264.09C734.361 1238.73 729.588 1226.16 729.443 1205.71C741.002 1231.35 757.227 1260.87 776.525 1281.48L785.805 1272.2L788.912 1275.31C758.857 1245.13 738.524 1195.47 723.988 1155.44C719.288 1175.51 714.909 1189.01 716.495 1213.7C611.826 1069.17 637.034 825.559 672.442 649.848C626.856 650.742 575.827 645.387 540.042 616.884C554.49 615.702 574.706 612.617 586.936 604.634C581.565 604.089 579.651 603.719 574.333 602.835L576.503 589.818C577.859 590.046 581.683 590.671 581.925 590.709C566.778 587.147 510.487 570.272 466.482 508.821C687.846 463.102 839.86 495.358 962.283 521.325C1197.4 571.193 1228.9 544.634 1341.29 464.773C1480.81 365.606 1603.98 297.461 1808.53 265.894C1803.57 284.279 1795.33 304.15 1785.45 319.692C1785.6 319.501 1788.01 316.479 1788.87 315.406L1798.77 323.303C1813.98 298.023 1820.33 274.607 1825.81 250C1430.63 307.458 1319.84 504.232 1201.04 527.5C1011.89 564.569 845.738 413.962 444.633 499.967C475.408 546.762 511.882 581.763 564.976 599.587C545.692 604.678 524.497 604.406 511.495 604.406L519.125 614.885C520.568 616.876 555.098 662.75 656.287 663.259C621.029 842.669 599.796 1094.32 717.048 1235.94Z" fill="#824600"/>
<path d="M1716.76 1174.94C1718.59 1173.26 1720.36 1171.56 1722.13 1169.86C1716.31 1175.19 1710.47 1180.13 1704.68 1184.73C1716 1279.44 1731.47 1545.42 1579.35 1705.43C1512.57 1783.52 1508.02 1817.44 1412.44 1826.39C1370.82 1830.29 1325.73 1823.2 1296.96 1794.36C1289.09 1795 1285.28 1795.14 1280.29 1795.35C1296.5 1817.17 1329.21 1836.81 1376.17 1840.12C1396.63 1841.55 1418.58 1839.75 1438.79 1836.24C1517.24 1822.59 1530.04 1783.48 1589.15 1714.26C1717.18 1579.61 1740.24 1356.14 1716.76 1174.94Z" fill="#824600"/>
<path d="M1736.36 434.326C1736.67 433.943 1736.98 433.556 1737.29 433.171L1736.26 434.324L1736.36 434.326Z" fill="#824600"/>
<path d="M790.269 1276.63C792.947 1279.26 795.769 1281.83 798.697 1284.37L798.719 1284.06C795.672 1281.55 793.84 1280.1 790.269 1276.63Z" fill="#824600"/>
<path d="M1278.61 1782.2L1283.35 1782L1211.65 1782.57C1211.68 1782.57 1215.27 1782.67 1216.49 1782.69L1216.16 1795.74L1279.18 1795.23L1278.61 1782.2Z" fill="#824600"/>
<path d="M889.487 1349.9L892.954 1341.05C861.326 1327.98 815.232 1301.63 785.805 1272.2L776.472 1281.54C807.463 1312.53 853.459 1336.84 889.487 1349.9Z" fill="#824600"/>
<path d="M1726.19 1166.13C1725.95 1165.87 1717.5 1156.67 1717.26 1156.41C1675.54 1194.77 1628.61 1220.67 1599.39 1230.03L1601.94 1239.17C1631.86 1232.2 1681.95 1206.86 1726.19 1166.13Z" fill="#824600"/>
<path d="M1216.49 1782.7C1171.21 1781.55 1131.04 1769.31 1095.9 1739.3C1082.22 1727.62 1075.39 1718.07 1075.23 1717.83L1067.27 1723.02C1067.41 1723.24 1071.82 1730.25 1080.88 1739.82C1113.16 1773.91 1157.5 1794.41 1216.16 1795.89C1216.16 1795.63 1216.48 1782.96 1216.49 1782.7Z" fill="#824600"/>
<path d="M1296.96 1794.36C1389.26 1786.8 1418.59 1743.95 1419.85 1742.05L1412.07 1736.59C1411.99 1736.7 1409.37 1740.02 1403.53 1744.82C1370.45 1772.01 1321.42 1780.38 1278.61 1782.2C1278.62 1782.45 1279.18 1795.1 1279.19 1795.39C1285.53 1795.13 1289.09 1795 1296.96 1794.36Z" fill="#824600"/>
<path d="M1479.43 1635.71C1524.68 1638.09 1552.43 1600.82 1584.59 1565.82L1546.52 1588.18C1490.51 1621.08 1441.49 1603.93 1421.37 1588.62L1383.91 1560.13L1412.1 1597.85C1413.19 1599.31 1439.53 1633.71 1479.43 1635.71ZM1533.86 1605.25C1500.59 1633.23 1465.43 1632.83 1434.12 1606.8C1457.75 1617.08 1493.6 1622.63 1533.86 1605.25Z" fill="#824600"/>
<path d="M1568.5 1390.3C1512.49 1423.2 1463.48 1406.05 1443.35 1390.75L1405.83 1362.18L1434.07 1399.94C1435.16 1401.41 1461.26 1435.81 1501.42 1437.83C1547.53 1440.27 1576.48 1400.7 1606.61 1367.91L1568.5 1390.3ZM1455.96 1408.87C1479.58 1419.19 1515.51 1424.8 1555.85 1407.38C1521.81 1436.01 1486.43 1434.31 1455.96 1408.87Z" fill="#824600"/>
<path d="M1330.77 1491.98C1274.75 1524.87 1225.75 1507.74 1205.63 1492.43L1168.17 1463.94L1196.35 1501.64C1197.44 1503.1 1223.64 1537.5 1263.69 1539.51C1308.52 1541.89 1336.14 1505.23 1368.85 1469.63L1330.77 1491.98ZM1218.28 1510.57C1241.91 1520.89 1277.81 1526.48 1318.11 1509.07C1283.93 1537.8 1248.65 1535.89 1218.28 1510.57Z" fill="#824600"/>
<path d="M1092.64 1381.69L1054.57 1404.04C998.546 1436.93 949.543 1419.79 929.418 1404.48L891.935 1375.97L920.136 1413.69C921.228 1415.16 947.324 1449.56 987.484 1451.57C1032.75 1453.98 1060.74 1416.41 1092.64 1381.69ZM942.016 1422.6C965.64 1432.95 1001.57 1438.55 1041.91 1421.12C1008.04 1449.61 972.639 1448.2 942.016 1422.6Z" fill="#824600"/>
<path d="M1037.97 1596.85L1000.48 1568.34L1028.69 1606.07C1043.86 1626.29 1071.74 1644.05 1099.68 1644.05C1143.12 1644.05 1169.35 1608.73 1201.2 1574.07L1163.12 1596.43C1107.12 1629.31 1058.1 1612.18 1037.97 1596.85ZM1050.64 1615.01C1074.27 1625.33 1110.17 1630.91 1150.47 1613.5C1116.76 1641.85 1081.49 1640.72 1050.64 1615.01Z" fill="#824600"/>
<path d="M1788.87 315.402C1750.3 363.803 1709.73 402.892 1687.22 420.307L1692.84 427.964C1719.76 409.244 1761.21 371.362 1799.18 323.627C1798.44 323.036 1791.4 317.417 1788.87 315.402Z" fill="#824600"/>
<path d="M1760.87 401.669C1743.1 427.199 1721.11 453.743 1702.02 473.521L1708.59 480.375C1728.76 462.476 1752.57 436.694 1771.7 409.205C1770.41 408.307 1761.92 402.4 1760.87 401.669Z" fill="#824600"/>
<path d="M656.266 598.743C668.04 596.065 675.702 593.582 675.862 593.526L673.182 584.418C644.402 591.279 609.064 595.234 576.499 589.816L574.329 602.833C595.732 606.391 619.514 607.105 656.266 598.743Z" fill="#824600"/>
<path d="M1126.59 1086.03C1125.11 1080.26 1123.8 1074.76 1122.64 1069.63C986.849 1250.09 768.941 1167.65 749.146 1023.58C722.487 829.567 791.005 697.329 932.429 669.859C1053.68 646.308 1159.36 756.47 1214.15 864.275C1229.44 825.719 1243.44 792.817 1267.6 754.188C1436.69 483.847 1701.32 651.055 1701.32 928.353C1701.32 1138.46 1435.08 1166.19 1335.87 1064.78C1335.12 1069.83 1334.28 1075.07 1333.34 1080.5C1445.8 1181.97 1714.51 1146.56 1714.51 928.351C1714.51 610.331 1377.85 436.8 1212.48 833.001C1151.75 728.77 1048.84 633.834 929.918 656.896C759.535 689.989 712.365 852.881 736.071 1025.38C756.975 1177.6 982.517 1265.77 1126.59 1086.03Z" fill="#824600"/>
<path d="M1335.86 1064.78C1341.45 1027.19 1341.77 1007.39 1341.77 1008.23C1341.81 1013.75 1334.3 1029.07 1323.51 1047.31C1315.62 1106.69 1292.94 1212.24 1240.34 1240.66C1173.14 1218.55 1142.14 1092.28 1133.05 1046.81C1123.38 1035.31 1118.6 1028.99 1114.23 1023.3C1125.03 1104.83 1162.23 1233.74 1241.72 1256.43C1302.78 1226.77 1325.94 1131.64 1335.86 1064.78Z" fill="#824600"/>
<path d="M1234.79 1213.14C1257.46 1214.22 1287.3 1145.71 1295.06 1091.03C1292.74 1094.28 1290.43 1097.47 1288.13 1100.55C1277.77 1157.39 1250.21 1205.79 1236.73 1207.91C1199.27 1175.41 1181.77 1126.22 1173.69 1090.86C1171.4 1088.63 1169.12 1086.37 1166.9 1084.13C1176.78 1132.66 1197.35 1180.96 1234.79 1213.14Z" fill="#824600"/>
<path d="M1290.8 907.732C1249.56 895.36 1204.83 899.525 1164.38 912.423C1167.28 950.415 1151.87 991.635 1119.4 1018.33L1113.89 1022.86C1141.64 1058.94 1199.66 1126.19 1242.4 1139.17C1247.85 1140.82 1253.37 1138.03 1257.92 1134.61C1284.08 1115 1341.87 1022.37 1341.77 1008.24C1341.63 987.882 1294.81 975.299 1290.8 907.732ZM1327.04 1008.16C1325.6 1019.49 1265.12 1116.94 1245.84 1124.81C1206.45 1112.15 1148.85 1043.11 1134.22 1024.97C1174.81 987.927 1179.31 939.495 1179.61 923.229C1194.42 919.342 1238.64 909.517 1276.83 919.059C1282.51 973.017 1324.04 1000.19 1327.04 1008.16Z" fill="#824600"/>
<path d="M1005.9 614.673C967.665 573.555 901.418 568.583 857.975 641.336C857.978 641.336 930.14 596.637 1005.9 614.673Z" fill="#824600"/>
<path d="M1539.08 572.421C1481.24 510.493 1417.54 529.351 1388.86 577.625C1459.1 543.986 1539.08 572.421 1539.08 572.421Z" fill="#824600"/>
<path d="M1480.34 946.02C1533.89 946.02 1577.16 899.72 1577.16 842.552C1577.16 757.598 1487.4 709.616 1423.84 758.148C1440.2 756.717 1453.92 769.344 1453.92 785.385C1453.92 800.337 1441.61 812.482 1426.3 812.482C1411.44 812.482 1399.18 800.807 1398.7 786.265C1357.11 854.857 1403.16 946.02 1480.34 946.02ZM1503.16 867.823C1511.76 867.823 1518.69 874.693 1518.69 883.157C1518.69 891.631 1511.76 898.492 1503.16 898.492C1494.56 898.492 1487.64 891.629 1487.64 883.157C1487.64 874.696 1494.55 867.823 1503.16 867.823Z" fill="#824600"/>
<path d="M929.61 816.676C945.971 815.247 959.685 827.874 959.685 843.913C959.685 858.865 947.373 871.01 932.063 871.01C917.205 871.01 904.947 859.335 904.467 844.793C862.879 913.388 908.93 1004.55 986.103 1004.55C1039.65 1004.55 1082.92 958.248 1082.92 901.081C1082.92 816.126 993.165 768.15 929.61 816.676ZM1008.92 957.024C1000.32 957.024 993.41 950.159 993.41 941.687C993.41 933.223 1000.32 926.353 1008.92 926.353C1017.53 926.353 1024.46 933.223 1024.46 941.687C1024.46 950.159 1017.53 957.024 1008.92 957.024Z" fill="#824600"/>
<path d="M1461.55 1018.93C1544.61 1018.93 1612.18 946.261 1612.18 856.936C1612.18 767.615 1544.61 694.947 1461.55 694.947C1378.5 694.947 1310.93 767.614 1310.93 856.936C1310.93 946.26 1378.5 1018.93 1461.55 1018.93ZM1461.55 707.603C1537.63 707.603 1599.52 774.595 1599.52 856.933C1599.52 939.277 1537.63 1006.27 1461.55 1006.27C1385.48 1006.27 1323.59 939.279 1323.59 856.933C1323.59 774.594 1385.48 707.603 1461.55 707.603Z" fill="#824600"/>
<path d="M968.336 752.663C885.283 752.663 817.717 825.329 817.717 914.655C817.717 1003.98 885.288 1076.64 968.336 1076.64C1051.39 1076.64 1118.96 1003.98 1118.96 914.655C1118.96 825.329 1051.39 752.663 968.336 752.663ZM968.336 1063.98C892.262 1063.98 830.373 996.993 830.373 914.65C830.373 832.306 892.262 765.314 968.336 765.314C1044.41 765.314 1106.3 832.306 1106.3 914.65C1106.3 996.993 1044.41 1063.98 968.336 1063.98Z" fill="#824600"/>
</g>
<defs>
<clipPath id="clip0_5_229">
<rect width="1636" height="1900" fill="white" transform="translate(432 250)"/>
</clipPath>
</defs>
</svg>
