<svg width="2500" height="2500" viewBox="0 0 2500 2500" fill="none" xmlns="http://www.w3.org/2000/svg">
<circle cx="1250" cy="1250" r="1240" fill="white" stroke="#FF8A00" stroke-width="20"/>
<g clip-path="url(#clip0_5_228)">
<path d="M2175.02 1026.69C2165.68 954.486 2116.41 885.25 2065.19 853.803C2027.96 831.078 1969.84 804.311 1902.11 803.371C1944.85 681.833 1891.62 540.583 1805.67 512.87C1740.96 492.118 1673.91 502.029 1614.59 533.646C1444.7 275.192 975.274 293.727 836.443 536.265C776.243 502.642 707.057 491.546 640.558 512.87C494.09 560.108 458.151 910.279 742.375 962.329C724.218 1079.2 838.183 1176.71 951.15 1224.47C924.65 1278.91 907.93 1357.45 903.42 1449.11C862.376 1432.4 808.244 1417.2 765.069 1427.99C692.244 1446.19 664.226 1509.98 681.854 1617.48C699.758 1726.98 776.27 1805.79 793.33 1822.18C799.219 1834.53 789.555 1865.64 778.008 1887.23C751.721 1897.88 722.495 1911.04 708.224 1915.78C688.832 1922.17 672.875 1930.53 659.094 1948.19C642.717 1969.74 640.558 1997.75 649.832 2021.33C650.521 2074.58 698.395 2099.25 751.605 2095.94C813.742 2142.34 880.971 2121.28 939.705 2071.72C949.485 2120.02 1011.35 2137.17 1058.74 2128.07C1060.06 2127.97 1066.12 2126.47 1068.46 2125.77C1108.03 2158.67 1176.04 2150.56 1219.83 2120.42C1230.95 2118.87 1240.89 2116.02 1249.7 2111.99C1258.52 2116.02 1268.46 2118.87 1279.57 2120.42C1280.33 2120.94 1281.13 2121.44 1281.9 2121.95L1284.29 2124.28L1284.72 2123.78C1328.41 2151.12 1392.9 2157.4 1430.94 2125.76C1433.73 2126.6 1439.55 2127.99 1440.67 2128.07C1487.04 2136.98 1549.76 2120.68 1559.71 2071.72C1618.74 2121.53 1685.89 2142.18 1747.8 2095.94C1801.57 2099.29 1848.89 2074.17 1849.58 2021.33C1865.11 1981.84 1848.99 1934.85 1791.19 1915.78C1776.91 1911.04 1748.02 1898.01 1721.4 1887.23C1709.86 1865.64 1700.19 1834.53 1706.08 1822.18C1793.56 1738.16 1832.89 1618.75 1820.71 1529.36C1881.48 1454.88 1887.12 1365.65 1836.71 1270.1C1788.16 1178.1 1715.17 1091.12 1760.35 1001.6C1802.12 918.838 1925.45 900.44 2001.45 948.953C2070.62 993.114 2068.71 1065.8 2015.27 1109.41C1899.1 1204.24 1993.53 1321.54 2124.31 1179.78C2164.77 1135.95 2182.31 1083.01 2175.02 1026.69ZM1802.2 523.63C1931.16 565.193 1974.91 881.475 1724.74 946.231C1723.77 941.917 1722.51 936.87 1721.28 932.578C1709.76 892.354 1681.46 881.866 1669.04 879.168C1669.24 877.598 1669.38 876.077 1669.57 874.517C1855.64 855.004 1834.93 634.73 1744.46 605.734C1708.19 594.076 1675.59 599.884 1651.6 608.961C1643.43 585.567 1633.19 563.842 1620.64 543.228C1676.41 513.725 1740.15 503.712 1802.2 523.63ZM1655.21 619.762C1677.35 611.359 1707.64 605.77 1741 616.492C1819.61 641.693 1842.07 842.94 1670.85 862.994C1681.14 766.889 1676.41 686.948 1655.21 619.762ZM744.513 951.233C469.878 901.026 510.217 566.766 644.015 523.63C707.036 503.404 772.998 513.735 831.022 546.184C819.89 567.472 811.507 590.092 805.127 613.449C780.618 602.229 743.469 592.33 701.769 605.732C609.686 635.221 591.187 858.581 781.023 874.948C764.023 896.958 750.732 923.597 744.513 951.233ZM788.347 793.57C790.164 814.301 793.936 857.442 790.844 863.354C790.801 863.395 790.505 863.702 790.055 864.183C603.678 854.348 623.937 642.525 705.219 616.489C737.884 605.987 771.491 609.976 802.259 624.532C790.542 672.538 783.643 739.688 788.347 793.57ZM754.034 961.44C763.289 907.942 798.352 871.845 798.846 871.343C809.11 861.031 797.433 783.23 797.699 765.917C798.972 685.757 809.453 599.822 851.963 532.297C1009.3 282.347 1529.69 295.623 1640.74 612.777C1671.27 699.958 1668.04 797.676 1656.38 889.17C1684.93 890.879 1702.88 909.419 1710.4 935.681C1728.32 998.237 1717.39 1055.77 1677.91 1106.7C1599.57 1207.74 1411.77 1271.96 1210.85 1266.47C929.302 1258.81 728.627 1108.26 754.034 961.44ZM1342.83 1843.48C1329.79 1849.35 1305.63 1867.5 1292.19 1880.7C1282.72 1789.59 1371.89 1667.82 1408.27 1595.14L1409.04 1595.42C1424.15 1554.36 1467.31 1532.95 1467.74 1532.75C1467.74 1532.75 1435.3 1541.51 1413.51 1567.45C1386.09 1460.11 1395.91 1286.61 1396.04 1284.81C1396.04 1284.81 1390.65 1332.21 1389.29 1393.06C1389.25 1391.07 1389.21 1389.11 1389.18 1387.15C1359.54 1331.34 1318.22 1291.53 1272.95 1277.25C1364.04 1273.28 1459.71 1254.69 1542.45 1218.17C1575.07 1284.71 1592.6 1389.49 1590.26 1510.85C1588.38 1609.36 1517.42 1839.91 1474.55 1910.78C1461.31 1883.8 1431.19 1839.46 1419.82 1836.73L1415.31 1835.64C1407.03 1858.13 1389 1884.68 1375.38 1904.32C1346.68 1859.97 1350.04 1851.18 1350.71 1839.91L1342.83 1843.48ZM1281.08 1864.29C1260.22 1867.87 1240.66 1868.2 1221.61 1865.84C1219.43 1834.37 1208.65 1800.89 1194.01 1767.64C1227.82 1773.02 1270.86 1772.03 1306.48 1763.18C1291.82 1797.61 1281.59 1832.15 1281.08 1864.29ZM1281.35 1875.4C1271.96 1886.2 1260.66 1899.78 1249.7 1914.4C1240.24 1901.77 1230.51 1889.91 1221.98 1879.95C1222 1878.76 1222.02 1877.58 1222.01 1876.39C1241.33 1878.61 1261.08 1878.19 1281.32 1874.88C1281.33 1875.06 1281.33 1875.23 1281.35 1875.4ZM1112.16 1360.61C1198.28 1233.03 1324.64 1268.43 1389.02 1410.18C1388.57 1461.95 1391.37 1527.17 1405.22 1577.05C1387.28 1618.43 1342.4 1683.85 1311.91 1750.86C1273.88 1761.95 1225.61 1763.13 1188.75 1756.04C1159.01 1692.28 1114.97 1626.95 1097.87 1587.51C1116.53 1520.29 1115.58 1424.02 1112.16 1360.61ZM1552.48 1213.62C1590.13 1196.07 1623.16 1175.37 1650.06 1152.03C1667.22 1203.41 1692.67 1247.11 1708.04 1273.48L1708.04 1273.48C1740.31 1328.78 1770.26 1374.51 1742.7 1430.37C1697.8 1416.27 1644.84 1429.74 1600.07 1447.47C1597.14 1374.76 1583.76 1276.25 1552.48 1213.62ZM960.744 1228.43C1035.25 1258.37 1117.79 1273.98 1198.65 1277.36C1166 1287.71 1135.96 1311.25 1111.19 1344.29C1109.24 1314.55 1107.06 1295.27 1107.06 1295.27C1112.2 1367.35 1109.48 1510.01 1086.78 1588.21C1118.54 1662.29 1221.08 1793.33 1210.91 1891.16C1197.47 1877.97 1173.3 1859.81 1160.27 1853.94L1152.39 1850.36C1153.03 1861.19 1156.71 1869.98 1127.71 1914.78C1114.11 1895.15 1096.07 1868.59 1087.79 1846.1L1083.28 1847.19C1071.91 1849.91 1041.79 1894.26 1028.55 1921.23C985.68 1850.36 914.715 1619.81 912.84 1521.3C910.495 1399.83 928.063 1294.96 960.744 1228.43ZM803.179 1815.78L802.099 1814.4C644.601 1664.15 623.248 1344.65 902.873 1461.69C900.469 1527.44 902.056 1565.11 924.876 1658.56C935.914 1703.75 949.987 1751.69 964.729 1795.31C815.506 1734.8 776.095 1646.85 775.68 1645.9C775.68 1645.9 808.957 1746.68 969.681 1809.73C979.826 1838.78 990.156 1865.44 999.927 1887.47C1000.4 1895.23 1000.98 1901.53 1001.71 1906.25C976.771 1905.86 932.6 1895.75 919.512 1877.44L914.873 1870.99C901.545 1888.54 881.445 1911.12 864.47 1919.82C866.537 1903.92 865.055 1882.69 861.591 1872.63L859.022 1865.17C834.329 1883 804.084 1895.71 784.339 1899.57C797.965 1876.81 813.98 1835.08 803.179 1815.78ZM938.248 2061.23C881.793 2110.68 816.775 2134.03 756.187 2088.24C747.067 2075.19 744.877 2057.16 754.896 2040.4C768.512 2017.61 814.227 1991.95 832.055 1990.55C836.059 1990.24 836.428 1983.76 832.146 1983.55C824.801 1983.18 807.002 1985.79 773.592 2009.06C738.091 2033.8 733.2 2063.42 745.306 2087.33C699.961 2088.54 659.14 2067.49 658.769 2021.02C675.224 1961.63 744.069 1943.52 804.884 1947.68C809.095 1947.97 809.762 1941.47 805.559 1940.91C748.405 1933.28 678.007 1951.1 654.569 2006.07C651.078 1989.01 654.362 1972.33 661.937 1959.9V1959.83C679.726 1929.42 712.925 1924.68 728.418 1918.24C737.65 1914.45 731.315 1916.16 768.601 1901.97C768.092 1902.6 769.827 1900.55 761.186 1910.92L772.026 1912.06C790.633 1914.08 829.866 1897.82 852.307 1884.02C856.694 1911.18 850.873 1927.59 848.764 1934.5L857.103 1934.12C875.445 1933.24 902.341 1905.21 915.029 1889.88C935.197 1908.63 976.782 1918.54 1007.34 1917.94C1001.67 1941.19 1003.41 1963.07 1007.34 1986.38C959.114 1983.22 935.081 2020.41 938.248 2061.23ZM1228.22 2109.81C1246.78 2085.09 1248.23 2056.41 1236.18 2032.7C1234.26 2028.91 1228.33 2031.73 1230.05 2035.7C1243.09 2065.84 1232.15 2096.88 1211.96 2114.96C1173.01 2140.32 1113.94 2148.14 1077.54 2121.5C1083 2119.04 1089.36 2115.77 1096.3 2111.39C1123.47 2094.28 1138.1 2055.53 1143.16 2024.12C1143.85 2019.8 1137.35 2018.76 1136.55 2023.02C1128.75 2064.71 1106.41 2104.13 1066.09 2117.16C1028.24 2128.62 964.766 2118.01 950.447 2077.78C938.729 2041.17 954.613 1991.61 1007.17 1995.3C989.549 2025.21 996.264 2064.19 998.836 2075.72C999.777 2079.95 1006.18 2078.57 1005.44 2074.4C1003.67 2064.3 999.257 2030.77 1012.45 2004.22C1020.95 2025.43 1035.98 2043.28 1041.78 2049.7C1044.69 2052.92 1049.65 2048.65 1046.9 2045.3C1031.01 2025.93 1017.91 2003.16 1015.22 1978.04L1015.07 1978.06C1012.97 1964.38 1010.22 1942.98 1015.82 1919.97C1021.8 1930.76 1024.67 1934.46 1030.78 1943.1L1034.29 1934.03C1043.4 1910.77 1070.66 1871.33 1082.14 1860.17C1092.47 1882.89 1114.43 1914.02 1127.96 1933.38C1139.51 1915.95 1158.62 1887.79 1162.66 1866.98C1179.3 1876.81 1204.3 1897.46 1210.08 1905.92L1217.12 1916.17C1219.55 1903.88 1220.37 1900.51 1221.21 1892.52C1244.35 1920.36 1273.54 1959.61 1281.7 1987.96C1297.42 2042.58 1285.51 2096.78 1228.22 2109.81ZM1259.81 2106.44C1261.95 2105.06 1264.02 2103.63 1265.99 2102.07C1267.52 2104.63 1269.23 2107.21 1271.17 2109.8C1267.18 2108.9 1263.42 2107.74 1259.81 2106.44ZM1548.99 2077.68C1534.6 2118.11 1470.84 2128.55 1433.28 2117.15C1393.01 2104.12 1370.66 2064.75 1362.85 2023.02C1362.04 2018.67 1355.58 2019.95 1356.25 2024.12C1361.31 2055.55 1375.93 2094.27 1403.11 2111.39C1410.04 2115.76 1416.41 2119.04 1421.86 2121.5C1385.4 2148.19 1326.32 2140.27 1287.44 2114.95C1286.13 2113.78 1278.89 2107.01 1272.71 2096.07C1300.6 2067.9 1301.1 2023.15 1290.25 1985.49C1284.76 1966.41 1270.74 1943.38 1255.16 1921.82C1264.41 1909.28 1274.04 1897.37 1282.53 1887.34C1283.2 1891.88 1283.27 1891.96 1285.98 1905.7L1293.02 1895.45C1298.8 1886.99 1323.81 1866.34 1340.45 1856.51C1344.48 1877.32 1363.59 1905.46 1375.15 1922.91C1388.97 1903.13 1410.68 1872.3 1420.96 1849.7C1432.44 1860.86 1459.7 1900.3 1468.82 1923.56L1472.32 1932.63C1477.61 1925.16 1479.36 1922.87 1482.87 1917.11C1488.95 1939.41 1487.21 1959.72 1483.75 1981.83C1480.1 2005.36 1467.64 2026.85 1452.47 2045.34C1449.73 2048.68 1454.77 2052.85 1457.58 2049.76C1463.33 2043.4 1478.43 2025.49 1486.96 2004.21C1500.15 2030.76 1495.75 2064.29 1493.97 2074.39C1493.22 2078.58 1499.64 2079.87 1500.57 2075.72C1503.14 2064.18 1509.86 2025.2 1492.23 1995.3C1511.81 1993.92 1529.38 1999.66 1540.77 2015.25C1552.67 2031.57 1555.89 2056.12 1548.99 2077.68ZM1727.38 1912.07L1738.22 1910.92C1728.83 1899.66 1731.71 1903.1 1730.81 1901.97C1767.35 1915.87 1764.64 1915.65 1770.98 1918.24C1784.88 1924.02 1813.67 1928.57 1831.74 1951.65C1843.49 1965.53 1849.03 1985.58 1844.84 2006.07C1821.39 1951.07 1751.26 1933.24 1693.85 1940.91C1689.61 1941.48 1690.32 1947.97 1694.52 1947.68C1755.93 1943.48 1824.26 1961.9 1840.64 2021.02C1840.29 2067.09 1799.72 2088.54 1754.1 2087.34C1784.4 2027.48 1690.67 1982.37 1667.24 1983.55C1663.02 1983.76 1663.28 1990.24 1667.34 1990.55C1672.93 1990.99 1689.17 1994.39 1720.72 2016.37C1754.65 2040.01 1757.25 2068.26 1743.22 2088.25C1682.87 2133.84 1617.83 2110.87 1561.17 2061.25C1564.34 2020.21 1540.07 1983.22 1492.07 1986.38C1496.36 1961.09 1497.54 1940.39 1492.07 1917.94C1523.54 1918.56 1564.69 1908.19 1584.38 1889.89C1597.07 1905.21 1623.96 1933.25 1642.3 1934.12L1650.64 1934.5C1648.93 1928.9 1642.46 1912.73 1647.1 1884.02C1669.54 1897.82 1708.77 1914.08 1727.38 1912.07ZM1806.02 1615.62C1793.82 1690.12 1748.41 1765.65 1697.3 1814.41L1696.22 1815.79C1685.42 1835.08 1701.43 1876.81 1715.07 1899.58C1696.96 1896.04 1666.46 1884.01 1640.38 1865.18L1637.81 1872.64C1634.35 1882.7 1632.86 1903.93 1634.93 1919.83C1617.55 1910.92 1597.73 1888.38 1584.53 1871L1579.89 1877.45C1566.81 1895.74 1523.18 1905.86 1497.69 1906.26C1498.49 1901.01 1499.13 1893.83 1499.63 1884.85C1509.26 1863.98 1519.54 1838.19 1529.72 1809.74C1690.44 1746.69 1723.72 1645.91 1723.72 1645.91C1723.3 1646.86 1683.92 1734.75 1534.81 1795.27C1549.72 1752.18 1564.13 1704.17 1575.66 1658.39C1600.9 1558.22 1602.16 1519.13 1600.5 1460.05C1639 1444.35 1691 1429.25 1731.5 1439.34C1798.32 1456.06 1822.71 1513.7 1806.02 1615.62ZM2118.06 1174.02C1995.84 1306.47 1913.7 1203.31 2020.65 1116.01C2070.05 1075.7 2076.34 1014.03 2038.67 969.988C1967.45 886.684 1803.81 896.639 1752.75 997.775C1705.43 1091.54 1781.39 1183.52 1829.18 1274.08C1876.47 1363.73 1872.72 1447.55 1818.76 1518.03C1810.64 1477.93 1789.41 1448.22 1750.97 1433.28C1795.08 1343.59 1701.52 1283.51 1657.03 1145.79C1712.23 1094.88 1739.85 1031.31 1726.99 957.344C1807.27 936.742 1868.9 887.869 1898.76 812.314C1969.07 812.421 2028.52 841.404 2060.75 861.074C2137.78 907.966 2225.37 1057.75 2118.06 1174.02Z" fill="#FF8A00"/>
<path d="M1556.3 1155.24C1657.16 1085.25 1701.06 988.788 1601.1 919.616C1642.62 484.432 1274.61 602.729 1241.54 663.946C1063.23 481.699 793.833 699.924 877.12 907.992C769.929 943.252 816.993 1090.42 912.382 1151.65C1117.51 1283.3 1370.23 1284.35 1556.3 1155.24ZM918.492 1142.14C831.721 1086.45 780.833 946.1 886.247 917.038L892.508 915.308C800.677 703.003 1070.91 492.876 1240.61 679.436L1255.93 696.275L1250.27 674.229C1249.47 671.109 1253.47 664.244 1264.22 655.934C1343.81 594.404 1627.64 537.951 1589.2 925.212C1688.63 991.871 1645.79 1079.38 1549.86 1145.95C1367.3 1272.63 1119.47 1271.13 918.492 1142.14Z" fill="#FF8A00"/>
<path d="M1401.13 1007.98C1412.22 1026.15 1413.75 1028.46 1418 1036.2C1404.9 1044.37 1336.23 1084.59 1244.43 1092.08L1241.65 1010.96C1270 1005.21 1326.19 959.757 1302.14 930.669C1302.14 930.669 1231.15 863.776 1165.92 936.971C1137.85 968.461 1192.86 1001.34 1227.25 1009.95L1230.08 1093.45C1174.15 1094.72 1104.14 1082.71 1040.53 1044.73C1045.39 1035.77 1046.06 1034.87 1058.28 1014.84C1032.79 1026.21 1013.31 1062.19 1018.43 1091.36C1024.95 1077.76 1027.58 1069.24 1038.15 1049.18L1032.49 1060.49C1045.56 1068.3 1058.6 1075.04 1071.58 1080.86C1108.5 1137.88 1135.42 1224.09 1229.4 1224.09C1326.79 1224.09 1347.97 1139.48 1381.23 1077.05C1403.1 1067.73 1418.98 1058.91 1427.18 1054.03C1433.93 1067.98 1435.61 1073.28 1440.98 1084.5C1446.02 1055.76 1427.09 1019.56 1401.13 1007.98ZM1214.47 1212.7C1189.05 1209.82 1168.12 1199.4 1149.52 1181.03C1160.38 1161.02 1175.29 1148.25 1189.71 1146.72C1209.79 1144.68 1224.23 1162.33 1235.41 1176.96C1244.8 1163.02 1255.95 1147.48 1274.35 1146.18C1292.87 1144.99 1310.09 1159.68 1319.6 1169.83C1293.7 1202.21 1260.45 1217.83 1214.47 1212.7ZM1324.82 1161.29C1294.38 1129.97 1261.27 1126.05 1234.96 1160.7C1202.96 1122.74 1166.97 1132.13 1143.1 1172.95C1121.1 1148.09 1105.78 1115.61 1088.5 1086.63C1172.25 1121.23 1288.62 1116.33 1366.78 1080.35C1353.54 1106.83 1341.71 1136.73 1324.82 1161.29Z" fill="#FF8A00"/>
<path d="M1397.03 719.173C1410.03 718.034 1420.93 728.071 1420.93 740.823C1420.93 752.708 1411.14 762.362 1398.98 762.362C1387.17 762.362 1377.42 753.079 1377.04 741.521C1343.98 796.041 1380.58 868.502 1441.93 868.502C1484.49 868.502 1518.89 831.702 1518.89 786.261C1518.88 718.736 1447.54 680.605 1397.03 719.173ZM1460.06 830.725C1453.22 830.725 1447.73 825.268 1447.73 818.533C1447.73 811.806 1453.22 806.344 1460.06 806.344C1466.9 806.344 1472.41 811.805 1472.41 818.533C1472.41 825.268 1466.9 830.725 1460.06 830.725Z" fill="#FF8A00"/>
<path d="M1427 667.819C1360.37 667.819 1306.16 726.077 1306.16 797.689C1306.16 869.305 1360.37 927.558 1427 927.558C1493.63 927.558 1547.83 869.303 1547.83 797.689C1547.84 726.076 1493.63 667.819 1427 667.819ZM1427 915.265C1367.15 915.265 1318.46 862.518 1318.46 797.689C1318.46 732.859 1367.15 680.114 1427 680.114C1486.84 680.114 1535.54 732.859 1535.54 797.689C1535.54 862.52 1486.85 915.265 1427 915.265Z" fill="#FF8A00"/>
<path d="M1134.27 786.256C1134.27 718.732 1062.93 680.598 1012.42 719.17C1025.42 718.031 1036.32 728.066 1036.32 740.821C1036.32 752.705 1026.53 762.359 1014.37 762.359C1002.56 762.359 992.816 753.077 992.43 741.519C959.376 796.037 995.976 868.499 1057.32 868.499C1099.88 868.499 1134.27 831.7 1134.27 786.256ZM1075.46 806.346C1082.3 806.346 1087.8 811.808 1087.8 818.535C1087.8 825.27 1082.3 830.727 1075.46 830.727C1068.62 830.727 1063.13 825.27 1063.13 818.535C1063.12 811.808 1068.62 806.346 1075.46 806.346Z" fill="#FF8A00"/>
<path d="M1163.23 797.689C1163.23 726.074 1109.03 667.819 1042.4 667.819C975.766 667.819 921.56 726.077 921.56 797.689C921.56 869.305 975.764 927.558 1042.4 927.558C1109.03 927.559 1163.23 869.302 1163.23 797.689ZM933.854 797.689C933.854 732.859 982.548 680.114 1042.39 680.114C1102.24 680.114 1150.94 732.859 1150.94 797.689C1150.94 862.518 1102.24 915.265 1042.39 915.265C982.545 915.265 933.854 862.52 933.854 797.689Z" fill="#FF8A00"/>
</g>
<defs>
<clipPath id="clip0_5_228">
<rect width="1647.63" height="1800" fill="white" transform="translate(529 347)"/>
</clipPath>
</defs>
</svg>
