<svg width="2500" height="2500" viewBox="0 0 2500 2500" fill="none" xmlns="http://www.w3.org/2000/svg">
<circle cx="1250" cy="1250" r="1240" fill="white" stroke="#000352" stroke-width="20"/>
<g clip-path="url(#clip0_5_191)">
<path d="M1947.54 416.054C1935.31 390.948 1909.78 358.28 1885.02 352.381C1723.53 316.273 1599.81 598.856 1574.98 660.258C1371.54 517.836 1091.66 525.898 924.578 636.796C900.103 569.57 781.785 271.415 619.991 302.225C575.615 312.412 487.223 411.517 559.335 608.796C602.509 726.932 592.12 832.536 626.986 903.757C626.899 903.855 626.801 903.944 626.723 904.057C640.726 926.912 657.763 960.835 721.565 979.277C724.245 980.057 730.052 981.677 733.011 982.196C730.802 1075.98 763.446 1171.48 812.768 1250.48C786.595 1340.93 810.647 1402.83 835.709 1439.03C863.534 1479.18 903.493 1503.98 939.066 1514.74C914.455 1595.48 895.857 1708.29 909.547 1792.77C887.444 1794.92 864.027 1805.6 850.146 1822.4C806.222 1875.61 870.262 1978.59 919.857 2026.34C909.247 2024.95 897.949 2025.31 888.344 2025.84C832.219 2028.9 820.043 2075.83 841.899 2097.06C862.644 2117.24 901.192 2111.09 926.749 2107.54C994.111 2098.16 1005.5 2079.94 1031.59 2077.76C1052 2112.72 1074.9 2146.22 1101.78 2176.33C1102 2176.59 1102.26 2176.8 1102.51 2177.01C1105.7 2182.99 1110.39 2187.59 1116.17 2191.05V2191.05C1116.58 2191.31 1117.01 2191.55 1117.44 2191.8C1118.07 2192.16 1118.72 2192.49 1119.37 2192.82H1119.45C1139.32 2202.78 1175.08 2202.83 1191.61 2190.02C1204.6 2196.83 1234.35 2181.78 1233.12 2154.18C1247.75 2126.55 1219.12 2094.15 1188.46 2085.83C1209 2088.95 1232.34 2090 1251.4 2090.65V2090.66C1254.97 2090.78 1253.64 2090.77 1257.2 2090.65C1278.17 2089.93 1299.01 2089.02 1320 2085.83C1289.39 2094.14 1260.71 2126.55 1275.34 2154.18C1274.11 2181.77 1303.86 2196.83 1316.85 2190.02C1333.48 2202.91 1369.25 2202.73 1389.01 2192.82H1389.09C1389.74 2192.49 1390.39 2192.16 1391.02 2191.81C1391.45 2191.56 1391.88 2191.31 1392.29 2191.05C1392.29 2191.05 1392.29 2191.05 1392.29 2191.05C1398.07 2187.59 1402.76 2182.99 1405.95 2177.01C1410.25 2173.42 1443.21 2135.42 1476.87 2077.76C1502.39 2079.89 1515.33 2098.3 1581.71 2107.54C1607.27 2111.1 1645.81 2117.25 1666.56 2097.06C1688.32 2075.91 1676.66 2028.92 1620.12 2025.84C1610.51 2025.31 1599.21 2024.95 1588.6 2026.33C1634.76 1981.9 1696.35 1886.29 1663.87 1830.41C1714.56 1791.59 1756.15 1719.91 1772.42 1664.67L1780.1 1638.63L1765.88 1655.47C1797.27 1592.89 1802.01 1540.73 1806.7 1498.14C1789.95 1536.69 1791.77 1533.28 1787.79 1539.39C1798.86 1456.08 1790.33 1427.45 1784.01 1395.89L1777.93 1420.98C1772.01 1445.42 1714.96 1581.08 1631.47 1642.58C1615.46 1654.9 1600.36 1665.55 1600.09 1665.74C1595.48 1623.82 1586.09 1572.66 1572.57 1525.62C1595.03 1521.16 1620.36 1509.11 1627.9 1503.53C1671.29 1471.89 1737.76 1397.29 1698.93 1251.89C1733.05 1190.33 1749.36 1119.65 1749.36 1118.36C1749.37 1118.28 1749.38 1118.25 1749.38 1118.25C1749.12 1117 1748.61 1115.88 1747.97 1114.87C1753.21 1084.92 1754.96 1055.76 1754.11 1027.64C1916.46 991.95 1865.24 836.297 1935.88 660.719C1984.8 539.069 1969.22 460.525 1947.54 416.054ZM734.189 960.209C734.187 960.209 734.185 960.209 734.185 960.209V960.218C664.718 942.434 640.74 901.869 627.486 832.684C627.488 832.689 627.49 832.694 627.493 832.696C627.49 832.692 627.49 832.689 627.49 832.687C641.165 858.68 661.562 881.466 696.196 898.163C696.21 898.175 696.21 898.163 696.21 898.163C709.396 904.6 725.976 909.862 741.503 911.642H741.505C738.247 926.289 735.544 943.815 734.189 960.209ZM746.887 890.386C721.79 888.371 690.945 875.07 666.606 850.788C620.382 804.662 609.676 673.157 596.887 657.264C592.248 639.047 586.647 620.399 579.683 601.345C551.773 524.991 537.323 431.574 580.843 363.299C589.254 350.134 601.208 336.436 614.506 328.113C621.864 323.489 625.203 323.226 629.038 322.696C663.767 317.91 696.656 332.361 724.235 353.234C724.235 353.234 724.235 353.234 724.249 353.245C762.915 382.576 796.153 428.221 821.25 469.594C821.299 471.092 821.646 472.6 822.346 474.032C852.335 534.673 868.74 627.282 846.672 690.69C817.989 773.412 775.111 791.845 746.887 890.386ZM860.299 2090.52C872.692 2062.07 889.034 2072.94 889.668 2070.75C889.668 2070.74 889.668 2070.74 889.668 2070.74C889.737 2070.49 889.651 2070.23 889.4 2070.14C879.728 2066.69 873.004 2070.85 873.808 2070.05C873.803 2070.05 873.801 2070.06 873.789 2070.06C864.621 2073.09 859.213 2078.86 854.253 2086.99C849.507 2082.98 847.158 2077.52 847.008 2072.76C853.95 2068.52 856.727 2054.39 876.341 2052.19C877.005 2052.11 877.085 2050.99 876.381 2050.98C864.038 2050.6 852.578 2057.34 848.91 2063.41C851.556 2057.27 857.585 2050.18 866.18 2045.41C878.713 2038.44 894.492 2038.75 909.063 2038.85C927.061 2044.28 939.141 2057.09 944.744 2073.33C944.744 2073.34 944.761 2073.36 944.761 2073.37C946.259 2077.74 947.313 2082.36 947.874 2087.16C925.675 2092.18 880.185 2099.15 860.299 2090.52ZM951.574 2086.32C950.337 2065.09 935.582 2046.79 915.779 2038.81C921.448 2038.73 927.077 2038.38 932.577 2037.36C937.398 2041.05 942.336 2044.28 947.355 2046.77C949.191 2047.68 951.552 2045.61 950.666 2043.67C947.24 2036.2 942.359 2029.16 936.904 2022.34C893.97 1985.09 845.5 1914.73 851.754 1857.77C854.189 1826.39 880.988 1811.49 911.542 1803.95C914.21 1817.64 917.606 1830.66 923.465 1847.28C923.479 1847.29 923.479 1847.29 923.479 1847.31C934.561 1878.86 986.706 1997.63 1022.76 2062.29C1008.71 2065.01 998.955 2075.03 951.574 2086.32ZM1198.41 2103.41C1207.14 2108.48 1213.32 2115.05 1217.78 2123.76C1211.7 2117.99 1203.8 2112.69 1194.94 2108.85C1193.1 2108.05 1191.22 2110.78 1192.99 2111.94C1234.71 2139.5 1223.56 2176.22 1199.95 2177.71C1202.86 2166.91 1198.65 2153.68 1190.9 2144.09C1174.33 2123.59 1154.39 2132.87 1155.27 2135.78C1155.48 2136.51 1156.34 2137.15 1157.2 2136.94C1171.49 2133.44 1188.99 2150.54 1187.46 2165.65C1185.82 2181.98 1172 2184.13 1158.7 2184.99C1143.66 2185.96 1131.07 2181.96 1119.41 2174.97C1119.42 2134.46 1144.79 2103.68 1198.41 2103.41ZM1349.77 2184.98C1336.46 2184.12 1322.64 2181.97 1321.01 2165.65C1319.47 2150.48 1337.02 2133.45 1351.27 2136.94C1352.13 2137.14 1352.98 2136.51 1353.2 2135.78C1354.1 2132.73 1334.04 2123.71 1317.57 2144.09C1309.82 2153.68 1305.6 2166.91 1308.51 2177.71C1285.04 2176.23 1273.49 2139.68 1315.47 2111.94C1317.24 2110.78 1315.36 2108.06 1313.53 2108.85C1304.51 2112.75 1296.65 2118.1 1290.68 2123.76C1295.1 2115.17 1301.15 2108.6 1309.98 2103.45C1363.16 2104.13 1388.23 2135.2 1387.84 2175.68C1376.52 2182.23 1364.28 2185.92 1349.77 2184.98ZM1640.49 2044.4C1648.14 2048.11 1656.04 2055.31 1659.55 2063.41C1652.57 2051.93 1629.22 2048.71 1631.73 2051.97C1632.16 2052.52 1635.18 2052.11 1640.61 2054.14C1652.18 2058.49 1656.18 2069.53 1661.45 2072.76C1661.29 2077.83 1658.96 2082.98 1654.21 2086.98C1649.46 2079.23 1643.45 2072.96 1634.67 2070.06C1634.66 2070.06 1634.65 2070.05 1634.65 2070.05C1629.61 2068.39 1624.39 2068.23 1619.06 2070.14C1618.52 2070.33 1618.79 2071.25 1619.35 2071.11C1630.12 2068.49 1638.83 2074.06 1644.54 2082.85C1645.91 2084.95 1646.8 2087.39 1648.16 2090.51C1628.02 2099.27 1581.97 2092 1560.59 2087.15C1561.15 2082.36 1562.2 2077.73 1563.7 2073.36C1563.7 2073.35 1563.71 2073.34 1563.71 2073.32C1569.32 2057.09 1581.4 2044.28 1599.4 2038.84C1613.08 2038.75 1628.38 2038.52 1640.49 2044.4ZM1601.39 1678.71C1608.52 1673.91 1628.9 1659.32 1638.34 1651.69C1700.18 1606.09 1752.91 1517.11 1780.95 1446.85C1784.23 1491.45 1776.4 1540.19 1769.79 1581.42C1782.65 1565.61 1784.19 1563.77 1786.63 1560.61C1772.68 1625.5 1754.05 1653.49 1713.25 1729.33C1744.92 1696.17 1745.18 1695.96 1751.16 1689.45C1730.76 1738.72 1699.11 1788.96 1657.16 1821.17C1643.16 1805.11 1620.44 1794.86 1598.91 1792.76C1604.95 1755.48 1604.85 1716.85 1601.39 1678.71ZM1596.88 1804.14C1596.58 1804.02 1596.38 1803.95 1596.38 1803.95C1596.55 1803.99 1596.71 1804.04 1596.89 1804.08C1596.9 1804.03 1596.91 1803.99 1596.92 1803.95C1601.88 1805.57 1611.65 1807.76 1622.94 1813.33C1654.11 1827.41 1661.84 1853.23 1654.81 1886.84C1644.04 1953.3 1584.42 2010.21 1572.87 2020.69C1566.87 2028.01 1561.5 2035.6 1557.8 2043.67C1556.91 2045.61 1559.27 2047.68 1561.11 2046.77C1566.13 2044.28 1571.07 2041.05 1575.89 2037.36C1581.39 2038.37 1587.02 2038.72 1592.69 2038.8C1572.88 2046.79 1558.12 2065.09 1556.89 2086.32C1511.6 2075.52 1498.38 2064.75 1485.71 2062.29C1522.29 1996.65 1574.29 1877.77 1584.99 1847.3C1584.99 1847.29 1584.99 1847.29 1585 1847.27C1590.83 1830.71 1594.23 1817.72 1596.88 1804.14ZM1542.52 1911.96C1517.83 1967.99 1494.98 2018.09 1466.49 2067.41H1466.48C1455.59 2086.17 1410.35 2160.43 1392.42 2172.75C1391.45 2132.97 1366.73 2102.9 1318.93 2099.23C1336.1 2092.8 1355.85 2092.81 1370.32 2096.88C1371.66 2098.23 1374.16 2099.26 1376.45 2098.96C1376.54 2099 1376.65 2099.05 1376.65 2099.05C1381.33 2100.97 1385.78 2103.52 1389.46 2106.94C1391.03 2108.39 1394.45 2106.98 1393.06 2104.67C1393.06 2104.67 1393.06 2104.67 1393.05 2104.66C1382.53 2087.09 1377.8 2100.05 1387.63 2079.33C1398 2057.35 1394.18 1984.94 1392.67 1960.71C1389.58 1910.16 1383.53 1857.52 1394 1804.69C1394.13 1804.02 1393.29 1803.76 1392.94 1804.01C1391.78 1804.6 1384.65 1829.37 1381.54 1848.42C1370.49 1915.87 1382.03 1987.07 1375.13 2055.4C1367.8 2057.55 1319.29 2082.96 1223.17 2075.46C1222.53 2075.29 1209.05 2074.51 1193.44 2072.18C1193.44 2072.18 1193.43 2072.18 1193.43 2072.18C1155.44 2066.51 1140.57 2057.52 1133.34 2055.4C1124.88 1971.69 1144.01 1884.14 1115.85 1804.36C1115.69 1803.94 1115.24 1803.87 1114.89 1804C1112.61 1804.89 1121.35 1821.96 1120.27 1881.25C1119.15 1941.89 1110.53 1982.74 1115.21 2052.87C1117.11 2081.5 1124.04 2080.28 1126.31 2092.76C1122.01 2095.91 1118.3 2099.83 1115.41 2104.67C1114.82 2105.65 1115.12 2106.46 1115.77 2106.97C1118.91 2109.41 1119.36 2104.14 1131.81 2099.05C1131.83 2099.04 1131.86 2099.04 1131.88 2099.03C1131.93 2099.01 1131.98 2098.98 1132.02 2098.96C1134.41 2099.28 1136.88 2098.16 1138.15 2096.88C1152.87 2092.73 1173.13 2093.15 1189.37 2099.17C1141.41 2102.47 1116.27 2131.95 1114.88 2171.86C1097.9 2159.38 1053.24 2086.84 1041.99 2067.41H1041.97C1013.87 2018.76 990.309 1967.47 965.719 1911.46C959.867 1903.85 885.345 1801.19 936.419 1580.43C941.104 1559.39 946.723 1538.72 953.113 1518.31C1008.2 1529.66 1054.06 1509.28 1096.33 1473.5C1096.65 1473.86 1096.99 1474.22 1097.36 1474.55C1179.65 1541.9 1199.71 1504.6 1300.08 1517.22C1394.58 1529.08 1429.54 1496.65 1439.93 1482.78C1474.38 1512.77 1513.25 1531.78 1558.17 1527.7C1559.13 1530.86 1560.09 1534.01 1561 1537.18C1560.95 1536.94 1560.92 1536.77 1560.92 1536.77C1561.95 1540.34 1564.4 1549.54 1564.48 1549.81C1632.62 1801.01 1542.52 1911.96 1542.52 1911.96ZM1337.24 2082.75C1348.12 2080.66 1362.11 2077.9 1373 2072.5C1372.89 2073.7 1372.83 2074.91 1372.82 2076.11C1371.61 2079.41 1370.61 2082.81 1369.68 2086.3C1359.66 2082.71 1348.28 2081.78 1337.24 2082.75ZM1171.21 2082.75C1160.18 2081.78 1148.8 2082.71 1138.78 2086.3C1137.85 2082.81 1136.85 2079.41 1135.64 2076.12C1135.62 2074.92 1135.57 2073.71 1135.45 2072.51C1145.82 2077.63 1160.07 2080.62 1171.21 2082.75ZM1354.9 1401.6C1389.03 1427.17 1401.48 1445.44 1423.93 1467.83C1417.81 1478.67 1401.54 1487 1389.73 1490.94H1389.71C1364.16 1499.48 1333.39 1499.03 1307.72 1496.3C1193.24 1483.16 1185.13 1517.75 1112.64 1459C1135.49 1438.02 1157.46 1415.3 1183.75 1395.38C1183.76 1395.38 1183.76 1395.38 1183.76 1395.38C1208.01 1418.3 1320.12 1425.57 1354.9 1401.6ZM1258.19 1137.35C1232.25 1138.64 1210.93 1132.77 1210.57 1124.25C1210.2 1115.72 1230.94 1107.77 1256.87 1106.49C1282.8 1105.21 1304.12 1111.07 1304.49 1119.6C1304.85 1128.12 1284.13 1136.07 1258.19 1137.35ZM1703.95 1191.16C1674.3 1264.34 1672.7 1234.77 1680.49 1267.4C1714.96 1411.85 1634.5 1502.3 1551.53 1506.56C1551.53 1506.58 1551.54 1506.6 1551.55 1506.62C1496.94 1509.55 1455.15 1470.81 1418.42 1430.44C1338.19 1342.18 1287.47 1360.4 1279.78 1299.76C1279.49 1290.07 1277.13 1274.65 1276.4 1226.68C1276.41 1226.68 1276.41 1226.68 1276.41 1226.68C1321.56 1218.78 1359.55 1176.34 1358.93 1134.78C1358.24 1089.17 1316.68 1082.05 1265.92 1082.94C1215.15 1083.82 1162 1093.11 1162.68 1138.72C1163.33 1181.45 1206.31 1223.32 1253.47 1227.72C1257.15 1286.34 1256.82 1289.57 1258.1 1300.77C1258.21 1309.5 1256.01 1329.99 1234.66 1341.25C1229.3 1344.08 1220.71 1346.74 1203.99 1356.1C1109.85 1408.82 1064.32 1516.61 959.845 1497.6V1497.6C955.262 1496.77 950.522 1495.62 945.678 1494.18C945.675 1494.18 945.675 1494.18 945.675 1494.18C865.693 1470.46 807.788 1390.13 827.082 1284.11C833.76 1247.47 837.807 1253.53 833.598 1242.87C763.411 1132.81 732.058 1009.67 771.794 885.909C783.756 848.679 802.128 813.489 819.108 789.644C819.123 789.618 819.134 789.595 819.158 789.567C844.118 753.75 871.856 701.283 876.546 657.994C879.538 630.415 878.754 601.106 874.541 572.017C890.746 608.012 901.683 637.211 906.208 649.803C895.972 657.585 890.249 662.918 889.239 663.891C883.152 669.698 885.811 679.838 893.703 682.119C897.294 683.154 901.309 682.306 904.2 679.549C905.396 678.429 1025.37 566.841 1250.75 575.929C1384.84 581.351 1498.71 623.718 1598.89 705.482C1603.51 709.272 1610.35 708.589 1614.12 703.937C1617.91 699.313 1617.22 692.491 1612.59 688.701C1606.15 683.441 1599.65 678.343 1593.09 673.406C1599.43 657.595 1619.04 610.68 1648.36 558.331C1627.42 620.817 1625.13 672.161 1632.53 704.115C1639.71 735.325 1671.43 788.895 1698.69 862.778C1698.69 862.804 1698.71 862.804 1698.71 862.816C1699.04 863.722 1702.41 872.97 1702.41 873.188C1704.93 880.294 1708.74 892.015 1710.68 898.461C1716.19 928.351 1762.66 1042.32 1703.95 1191.16ZM1752.93 1005.7C1751.94 993.003 1750.23 978.723 1748.25 966.357C1800.98 974.719 1841.35 908.684 1865.15 860.557C1849.92 938.442 1830.6 987.121 1752.93 1005.7ZM1946.46 519.888C1945.72 539.731 1943.68 560.091 1936.65 588.83V588.842C1932.52 605.576 1928.54 617.675 1923.62 631.944C1923.62 631.944 1923.62 631.944 1923.62 631.956C1922.81 634.207 1919.81 642.304 1919.87 642.164C1913.17 659.823 1899.71 689.891 1886.31 748.877C1884.95 750.983 1854.82 849.987 1815.86 902.195C1775.79 958.786 1751.03 943.098 1744.18 944.021C1738.31 915.409 1731.21 891.099 1721.74 863.506C1679.08 741.217 1646.27 723.954 1650.41 652.973C1656.32 549.743 1728.32 445.248 1729.77 441.723C1760.98 407.508 1805.94 371.792 1852.37 370.994C1860.93 370.655 1876.8 371.515 1884.42 375.326C1886.66 376.517 1891.98 379.819 1892.62 380.519C1932.6 410.334 1947.83 468.687 1946.46 519.888Z" fill="#000352"/>
<path d="M1113.48 1212.64C1104.26 1209.98 1094.62 1215.29 1091.95 1224.52C1087.63 1239.48 1103.63 1251.97 1117.04 1244.57C1130.48 1237.15 1128.4 1216.95 1113.48 1212.64Z" fill="#000352"/>
<path d="M1162.13 1262.72C1143.1 1264.1 1140.31 1291.4 1158.78 1296.74C1164.87 1298.5 1171.74 1296.89 1176.51 1291.7L1176.53 1291.68C1177.76 1290.33 1178.77 1288.71 1179.26 1287.61C1179.26 1287.61 1179.27 1287.61 1179.27 1287.6C1185.11 1275.62 1175.63 1261.64 1162.24 1262.71C1162.2 1262.7 1162.16 1262.71 1162.13 1262.72Z" fill="#000352"/>
<path d="M1106.94 1302.64C1093.01 1298.61 1080.82 1312.43 1085.85 1325.48C1085.85 1325.49 1085.85 1325.49 1085.85 1325.49C1091.83 1341.16 1114.22 1340.09 1118.83 1324.17C1121.49 1314.95 1116.17 1305.31 1106.94 1302.64Z" fill="#000352"/>
<path d="M1038.77 1249.52C1032.79 1247.8 1026.63 1249.48 1022.52 1253.12C1013.15 1260.9 1014.65 1278.06 1028.61 1282.77C1031.97 1283.77 1034.99 1283.69 1035.42 1283.54C1054.14 1282.16 1057.45 1254.92 1038.77 1249.52Z" fill="#000352"/>
<path d="M1027.7 1321.51C1011.35 1316.77 998.826 1336.03 1009.22 1348.97C1014.33 1355.52 1023.69 1357.61 1031.27 1353.43C1044.72 1346.02 1042.63 1325.82 1027.7 1321.51Z" fill="#000352"/>
<path d="M1435.74 1222.49C1432 1212.18 1419.71 1207.84 1410.29 1213.62C1401.27 1219.17 1399.43 1231.46 1405.71 1239.13V1239.14C1405.98 1239.49 1406.26 1239.83 1406.57 1240.15V1240.16C1418.78 1253.95 1442.4 1240.73 1435.74 1222.49Z" fill="#000352"/>
<path d="M1383.81 1275.48C1374.18 1254.96 1344.28 1268.34 1351.67 1288.68C1355.28 1299.56 1369.89 1304 1379.23 1296.01C1379.23 1296.01 1379.23 1296.01 1379.23 1296.01C1379.24 1296.01 1379.24 1296.01 1379.24 1296.01C1379.24 1296.01 1379.24 1296.01 1379.24 1296.01C1385.56 1290.42 1386.9 1282.06 1383.81 1275.48Z" fill="#000352"/>
<path d="M1426.05 1301.45C1417.02 1304.75 1412.39 1314.73 1415.66 1323.74C1418.94 1332.73 1429.14 1337.82 1438.78 1333.73C1447.79 1329.91 1451.35 1320.12 1448.33 1311.85C1445.06 1302.82 1435.08 1298.17 1426.05 1301.45Z" fill="#000352"/>
<path d="M1502.39 1276.52C1510.18 1273.84 1515.64 1265.13 1513.24 1255.72V1255.7C1510.12 1244.63 1498.23 1239.83 1488.59 1244.66C1481.01 1248.49 1477.56 1257.09 1479.64 1264.64C1479.64 1264.64 1479.64 1264.64 1479.64 1264.65C1482.07 1274.18 1492.53 1280.1 1502.39 1276.52Z" fill="#000352"/>
<path d="M1521.1 1316.24C1507.11 1308.08 1490.46 1321.93 1496 1337.2C1499.5 1346.82 1510.9 1351.81 1520.81 1346.44C1532.71 1339.73 1532.54 1322.83 1521.1 1316.24Z" fill="#000352"/>
<path d="M1406.83 1065C1410.64 1067.36 1415.35 1067.09 1418.8 1064.67C1420.9 1063.19 1421.93 1061.24 1421.77 1061.5C1424.37 1057.28 1423.78 1051.33 1420.01 1047.94C1418.23 1044.39 1358.3 1011.95 1280.26 1006.07C1209.89 1000.74 1134.77 1017.92 1077.56 1047.82C1069.15 1052.1 1069.87 1064.42 1078.8 1067.63C1084.99 1069.88 1086.59 1066.93 1104.58 1059.12C1160.71 1034.16 1224.84 1022.67 1285.97 1028.7C1285.97 1028.71 1285.97 1028.71 1285.98 1028.7C1341.86 1034.17 1396.36 1056.56 1406.83 1065Z" fill="#000352"/>
<path d="M895.729 902.513C821.745 902.513 761.554 962.701 761.554 1036.69C761.554 1110.67 821.745 1170.86 895.729 1170.86C969.711 1170.86 1029.9 1110.67 1029.9 1036.69C1029.9 962.703 969.711 902.513 895.729 902.513ZM942.033 970.091C949.816 1016.4 892.087 1044.02 860.835 1009.35C853.2 1021.9 848.72 1036.58 848.72 1052.35C848.72 1126.07 938.19 1162.93 990.214 1111.16C918.987 1201.33 775.271 1149.59 775.271 1036.68C775.271 970.264 829.308 916.227 895.728 916.227C969.125 916.227 1026.46 982.325 1014.48 1056.03C1016.42 1011.08 983.345 975.236 942.033 970.091Z" fill="#000352"/>
<path d="M1595.19 902.51C1521.21 902.51 1461.02 962.7 1461.02 1036.68C1461.02 1110.67 1521.21 1170.86 1595.19 1170.86C1669.17 1170.86 1729.36 1110.67 1729.36 1036.68C1729.36 962.703 1669.17 902.51 1595.19 902.51ZM1500.7 1111.16C1552.71 1162.92 1642.2 1126.1 1642.2 1052.35C1642.2 1036.58 1637.72 1021.9 1630.08 1009.34C1598.9 1043.94 1541.05 1016.58 1548.89 970.09C1507.37 975.261 1474.45 1011.35 1476.43 1056.03C1464.44 982.217 1521.85 916.226 1595.19 916.226C1661.61 916.226 1715.65 970.264 1715.65 1036.68C1715.65 1149.74 1571.87 1201.25 1500.7 1111.16Z" fill="#000352"/>
</g>
<defs>
<clipPath id="clip0_5_191">
<rect width="1436.21" height="1900" fill="white" transform="translate(532 300)"/>
</clipPath>
</defs>
</svg>
