<?xml version="1.0" ?><svg viewBox="0 0 64 64" xmlns="http://www.w3.org/2000/svg"><title/><g data-name="Day 04" id="b5863d3a-28ec-4f68-aa9e-ec057de5e8cd"><path d="M45.56,37.61A2,2,0,0,0,45,39.33l2.2,12.78a1.94,1.94,0,0,1-2.82,2l-3.21-1.69L32.9,48.12a2,2,0,0,0-1.8,0l-.1,0-.4.21-11,5.78a1.94,1.94,0,0,1-2.82-2l.14-.79,2.06-12a2,2,0,0,0-.56-1.72l-9.29-9a1.94,1.94,0,0,1,1.07-3.31l12.84-1.86a1.94,1.94,0,0,0,1.46-1.06L29.62,12l.36-.72.28-.57a1.94,1.94,0,0,1,3.48,0l5.74,11.63a1.53,1.53,0,0,0,.17.27,1.92,1.92,0,0,0,1.29.79l8.69,1.26,4.15.6a1.94,1.94,0,0,1,1.07,3.31Z" data-name="&lt;Path&gt;" fill="#f95d86" id="9b9d2575-2de6-4f46-b5c5-e0785e9d4ad2"/><path d="M45.56,37.61A2,2,0,0,0,45,39.33l2.2,12.78a1.94,1.94,0,0,1-2.82,2l-3.21-1.69L32.9,48.12a2,2,0,0,0-1.8,0l-.1,0L33,48l7.55,2.06a3,3,0,0,0,3.73-2.63L45,38l4.69-7.82a2.2,2.2,0,0,0-1-3.16L39,23,30,11.27l.28-.57a1.94,1.94,0,0,1,3.48,0l5.74,11.63a1.53,1.53,0,0,0,.17.27,1.92,1.92,0,0,0,1.29.79l8.69,1.26,4.15.6a1.94,1.94,0,0,1,1.07,3.31Z" data-name="&lt;Path&gt;" fill="#d14e71" id="3e6de91e-985c-496b-b8fa-2872cd9d54a4"/><path d="M33.74,10.7l5.74,11.63a1.94,1.94,0,0,0,1.46,1.06l12.84,1.87a1.94,1.94,0,0,1,1.07,3.31l-9.29,9.05A1.94,1.94,0,0,0,45,39.33L47.2,52.11a1.94,1.94,0,0,1-2.81,2l-11.48-6a1.94,1.94,0,0,0-1.8,0l-11.48,6a1.94,1.94,0,0,1-2.81-2L19,39.33a1.94,1.94,0,0,0-.56-1.72L9.15,28.56a1.94,1.94,0,0,1,1.07-3.31l12.84-1.87a1.94,1.94,0,0,0,1.46-1.06L30.26,10.7A1.94,1.94,0,0,1,33.74,10.7Z" data-name="&lt;Path&gt;" fill="none" id="9e124ae2-fa6c-41c3-b94b-29398a51ae80" stroke="#001c63" stroke-linecap="round" stroke-linejoin="round" stroke-width="2"/><line data-name="&lt;Path&gt;" fill="none" id="b465b02b-dacf-4020-ad6b-1eb743ccc4a6" stroke="#fff" stroke-linecap="round" stroke-linejoin="round" stroke-width="2" x1="14" x2="19" y1="28" y2="33"/><circle cx="27" cy="30" data-name="&lt;Path&gt;" fill="#001c63" id="9f6d917c-b2f1-4552-92fe-f8377583e2ad" r="2"/><ellipse cx="26.86" cy="33.93" data-name="&lt;Path&gt;" fill="#f9d6b0" id="e0f7b6f5-796c-4bfe-bc1b-673d07473395" rx="1.86" ry="0.93"/><ellipse cx="37.14" cy="33.93" data-name="&lt;Path&gt;" fill="#f9d6b0" id="9eda33d8-ab63-4a34-816f-74d84b2fff6b" rx="1.86" ry="0.93"/><circle cx="37" cy="30" data-name="&lt;Path&gt;" fill="#001c63" id="dea7e78d-8dc9-4816-a4da-e87213ee3f0b" r="2"/><g data-name="&lt;Group&gt;" id="921bae2b-5e63-4086-925a-202a7b67f2ef"><path d="M9,54.2c3.33,0,3.33,1.6,6.66,1.6s3.33-1.6,6.67-1.6,3.33,1.6,6.67,1.6" data-name="&lt;Path&gt;" fill="none" id="ea26d27c-6eb8-4525-bd33-ca42fff505c7" stroke="#45d2f4" stroke-linecap="round" stroke-linejoin="round" stroke-width="2"/></g><g data-name="&lt;Group&gt;" id="21ecf39d-1c4a-42d6-8b88-f2865fba0aa4"><path d="M38,44.2c3.33,0,3.33,1.6,6.66,1.6s3.33-1.6,6.67-1.6,3.33,1.6,6.67,1.6" data-name="&lt;Path&gt;" fill="none" id="dfa09801-f4c0-4228-a5a1-a7a77032451f" stroke="#45d2f4" stroke-linecap="round" stroke-linejoin="round" stroke-width="2"/></g><g data-name="&lt;Group&gt;" id="a9fbf841-45b1-44b4-b30a-1a5bb2a0d06e"><path d="M12,12.2c3.33,0,3.33,1.6,6.66,1.6s3.33-1.6,6.67-1.6,3.33,1.6,6.67,1.6" data-name="&lt;Path&gt;" fill="none" id="74a177fd-8c39-4b0e-ad94-c08e1f71330b" stroke="#45d2f4" stroke-linecap="round" stroke-linejoin="round" stroke-width="2"/></g><path d="M34,37.5a6.43,6.43,0,0,1-.08,1c-.25,1.44-1,2.5-1.92,2.5s-1.67-1.06-1.92-2.5a6.43,6.43,0,0,1-.08-1c0-1.93.9-3.5,2-3.5S34,35.57,34,37.5Z" data-name="&lt;Path&gt;" fill="#001c63" id="19a57cf3-3f2b-4e87-9b44-48b5cc21c7b6"/><path d="M33.92,38.5c-.25,1.44-1,2.5-1.92,2.5s-1.67-1.06-1.92-2.5c.25-1.44,1-2.5,1.92-2.5S33.67,37.06,33.92,38.5Z" data-name="&lt;Path&gt;" fill="#981a86" id="fdd5ba96-510f-486c-8379-2c6b2f9046b6"/><circle cx="21" cy="35" data-name="&lt;Path&gt;" fill="#fff" id="8b1ffd6b-d929-4cef-b313-4783c118384c" r="1"/></g></svg>